<svg version="1.1" xmlns="http://www.w3.org/2000/svg" viewBox="0 0 856.1777384694049 329.46018096797474" width="1712.3554769388097" height="658.9203619359495">
  <!-- svg-source:excalidraw -->
  
  <defs>
    <style>
      @font-face {
        font-family: "Virgil";
        src: url("https://excalidraw.com/Virgil.woff2");
      }
      @font-face {
        font-family: "Cascadia";
        src: url("https://excalidraw.com/Cascadia.woff2");
      }
    </style>
  </defs>
  <rect x="0" y="0" width="856.1777384694049" height="329.46018096797474" fill="#ffffff"></rect><g stroke-linecap="round" transform="translate(517.2541272393305 114.12058551798617) rotate(0 164.46180561503718 102.66979772499428)"><path d="M328.92 102.67 C328.92 105.5, 328.74 108.33, 328.36 111.15 C327.99 113.96, 327.43 116.78, 326.68 119.57 C325.94 122.36, 325 125.13, 323.89 127.87 C322.78 130.61, 321.48 133.33, 320.01 136.01 C318.54 138.68, 316.89 141.32, 315.07 143.91 C313.25 146.5, 311.26 149.05, 309.1 151.54 C306.95 154.02, 304.62 156.46, 302.14 158.82 C299.67 161.19, 297.03 163.5, 294.25 165.73 C291.46 167.96, 288.53 170.13, 285.46 172.21 C282.39 174.29, 279.18 176.29, 275.85 178.21 C272.52 180.12, 269.05 181.95, 265.48 183.69 C261.9 185.43, 258.2 187.08, 254.41 188.62 C250.62 190.17, 246.72 191.62, 242.74 192.97 C238.76 194.31, 234.67 195.56, 230.53 196.69 C226.38 197.83, 222.14 198.86, 217.86 199.78 C213.58 200.69, 209.22 201.5, 204.83 202.2 C200.45 202.89, 196 203.47, 191.53 203.94 C187.07 204.4, 182.55 204.76, 178.04 204.99 C173.53 205.22, 168.99 205.34, 164.46 205.34 C159.93 205.34, 155.39 205.22, 150.88 204.99 C146.37 204.76, 141.86 204.4, 137.39 203.94 C132.93 203.47, 128.48 202.89, 124.09 202.2 C119.7 201.5, 115.34 200.69, 111.06 199.78 C106.78 198.86, 102.54 197.83, 98.4 196.69 C94.25 195.56, 90.17 194.31, 86.19 192.97 C82.21 191.62, 78.3 190.17, 74.51 188.62 C70.72 187.08, 67.02 185.43, 63.45 183.69 C59.87 181.95, 56.41 180.12, 53.07 178.21 C49.74 176.29, 46.53 174.29, 43.46 172.21 C40.4 170.13, 37.46 167.96, 34.68 165.73 C31.9 163.5, 29.26 161.19, 26.78 158.82 C24.3 156.46, 21.98 154.02, 19.82 151.54 C17.67 149.05, 15.67 146.5, 13.85 143.91 C12.03 141.32, 10.38 138.68, 8.91 136.01 C7.44 133.33, 6.14 130.61, 5.03 127.87 C3.92 125.13, 2.99 122.36, 2.24 119.57 C1.5 116.78, 0.94 113.96, 0.56 111.15 C0.19 108.33, 0 105.5, 0 102.67 C0 99.84, 0.19 97.01, 0.56 94.19 C0.94 91.37, 1.5 88.56, 2.24 85.77 C2.99 82.98, 3.92 80.21, 5.03 77.47 C6.14 74.73, 7.44 72.01, 8.91 69.33 C10.38 66.66, 12.03 64.02, 13.85 61.43 C15.67 58.84, 17.67 56.29, 19.82 53.8 C21.98 51.32, 24.3 48.88, 26.78 46.51 C29.26 44.15, 31.9 41.84, 34.68 39.61 C37.46 37.38, 40.4 35.21, 43.46 33.13 C46.53 31.05, 49.74 29.05, 53.07 27.13 C56.41 25.22, 59.87 23.38, 63.45 21.65 C67.02 19.91, 70.72 18.26, 74.51 16.72 C78.3 15.17, 82.21 13.72, 86.19 12.37 C90.17 11.03, 94.25 9.78, 98.4 8.65 C102.54 7.51, 106.78 6.48, 111.06 5.56 C115.34 4.65, 119.7 3.84, 124.09 3.14 C128.48 2.45, 132.93 1.87, 137.39 1.4 C141.86 0.94, 146.37 0.58, 150.88 0.35 C155.39 0.12, 159.93 0, 164.46 0 C168.99 0, 173.53 0.12, 178.04 0.35 C182.55 0.58, 187.07 0.94, 191.53 1.4 C196 1.87, 200.45 2.45, 204.83 3.14 C209.22 3.84, 213.58 4.65, 217.86 5.56 C222.14 6.48, 226.38 7.51, 230.53 8.65 C234.67 9.78, 238.76 11.03, 242.74 12.37 C246.72 13.72, 250.62 15.17, 254.41 16.72 C258.2 18.26, 261.9 19.91, 265.48 21.65 C269.05 23.38, 272.52 25.22, 275.85 27.13 C279.18 29.05, 282.39 31.05, 285.46 33.13 C288.53 35.21, 291.46 37.38, 294.25 39.61 C297.03 41.84, 299.67 44.15, 302.14 46.51 C304.62 48.88, 306.95 51.32, 309.1 53.8 C311.26 56.29, 313.25 58.84, 315.07 61.43 C316.89 64.02, 318.54 66.66, 320.01 69.33 C321.48 72.01, 322.78 74.73, 323.89 77.47 C325 80.21, 325.94 82.98, 326.68 85.77 C327.43 88.56, 327.99 91.37, 328.36 94.19 C328.74 97.01, 328.92 99.84, 328.92 102.67" stroke="#c92a2a" stroke-width="4" fill="none"></path></g><g stroke-linecap="round"><g transform="translate(347.74281548800695 169.17322925930415) rotate(0 84.25865400916177 14.6325113592207)"><path d="M0 0 C28.09 4.88, 140.43 24.39, 168.52 29.27 M0 0 C28.09 4.88, 140.43 24.39, 168.52 29.27" stroke="#c92a2a" stroke-width="4" fill="none"></path></g><g transform="translate(347.74281548800695 169.17322925930415) rotate(0 84.25865400916177 14.6325113592207)"><path d="M29.53 -5.29 C20.44 -3.66, 11.35 -2.03, 0 0 M29.53 -5.29 C21.44 -3.84, 13.35 -2.39, 0 0" stroke="#c92a2a" stroke-width="4" fill="none"></path></g><g transform="translate(347.74281548800695 169.17322925930415) rotate(0 84.25865400916177 14.6325113592207)"><path d="M26.02 14.93 C18.01 10.34, 10 5.74, 0 0 M26.02 14.93 C18.89 10.84, 11.77 6.75, 0 0" stroke="#c92a2a" stroke-width="4" fill="none"></path></g></g><a href="introduction.html#book-structure"><g transform="translate(215.4125685973636 97.64204088901812) rotate(0 27 10)"><text x="27" y="14" font-family="Virgil, Segoe UI Emoji" font-size="16px" fill="#c92a2a" text-anchor="middle" style="white-space: pre;" direction="ltr">teeext</text></g></a><g stroke-linecap="round" transform="translate(10 10) rotate(0 168.47416666327604 125.27566239064114)"><path d="M0 0 C73.28 0, 146.56 0, 336.95 0 M0 0 C98.69 0, 197.37 0, 336.95 0 M336.95 0 C336.95 69.63, 336.95 139.25, 336.95 250.55 M336.95 0 C336.95 62.08, 336.95 124.17, 336.95 250.55 M336.95 250.55 C234.11 250.55, 131.27 250.55, 0 250.55 M336.95 250.55 C225.18 250.55, 113.42 250.55, 0 250.55 M0 250.55 C0 154.24, 0 57.94, 0 0 M0 250.55 C0 160.25, 0 69.94, 0 0" stroke="#c92a2a" stroke-width="4" fill="none"></path></g></svg>