<svg version="1.1" xmlns="http://www.w3.org/2000/svg" viewBox="0 0 655.1719068095174 625.8819869238724" width="1310.3438136190348" height="1251.7639738477449">
  <!-- svg-source:excalidraw -->
  
  <defs>
    <style>
      @font-face {
        font-family: "Virgil";
        src: url("https://excalidraw.com/Virgil.woff2");
      }
      @font-face {
        font-family: "Cascadia";
        src: url("https://excalidraw.com/Cascadia.woff2");
      }
    </style>
  </defs>
  <rect x="0" y="0" width="655.1719068095174" height="625.8819869238724" fill="#ffffff"></rect><g stroke-linecap="round" transform="translate(341.92269910018786 181.42965971454407) rotate(0 76.16461016544793 25)"><path d="M112.36 2.18 C123.13 3.3, 133.29 6.85, 139.84 10.12 C146.39 13.39, 150.26 17.83, 151.65 21.79 C153.05 25.75, 152.22 30.23, 148.19 33.89 C144.16 37.56, 136.59 41.35, 127.47 43.78 C118.35 46.22, 105.1 47.51, 93.46 48.52 C81.82 49.52, 68.91 50.77, 57.6 49.8 C46.3 48.84, 34.52 45.34, 25.63 42.75 C16.74 40.15, 8.52 37.84, 4.25 34.26 C-0.02 30.67, -1.42 25.2, -0.01 21.23 C1.4 17.26, 6.05 13.59, 12.7 10.44 C19.34 7.3, 29.33 4.27, 39.84 2.37 C50.36 0.47, 62.58 -1.15, 75.79 -0.96 C89 -0.77, 111.03 2.27, 119.1 3.51 C127.16 4.76, 124.93 6.11, 124.18 6.51 M94.17 -0.56 C105.36 0.26, 117.43 3.72, 126.25 6.64 C135.07 9.55, 142.71 13.5, 147.09 16.93 C151.48 20.37, 153.81 23.44, 152.55 27.24 C151.3 31.03, 146.66 36.21, 139.58 39.7 C132.51 43.19, 121.04 46.69, 110.11 48.18 C99.18 49.68, 85.81 48.95, 74 48.68 C62.2 48.41, 49.3 48.07, 39.28 46.56 C29.26 45.05, 20.18 42.76, 13.89 39.6 C7.6 36.45, 3.2 31.57, 1.55 27.63 C-0.11 23.69, -0.26 19.45, 3.94 15.96 C8.14 12.46, 17.48 9.03, 26.73 6.66 C35.99 4.29, 48.04 2.77, 59.47 1.76 C70.91 0.75, 89.42 0.7, 95.34 0.6 C101.26 0.5, 95.18 0.99, 95 1.18" stroke="#000000" stroke-width="4" fill="none"></path></g><g stroke-linecap="round" transform="translate(304.23188549759675 220.61863430954065) rotate(0 21.81534250743823 21.075839371592906)"><path d="M11.18 3.29 C14.75 0.94, 21.36 -0.58, 25.99 0.41 C30.63 1.39, 36.07 5.42, 39 9.18 C41.94 12.94, 43.81 18.73, 43.62 22.96 C43.43 27.18, 41.18 31.4, 37.87 34.52 C34.56 37.64, 28.32 40.98, 23.76 41.69 C19.2 42.4, 14.47 41.29, 10.51 38.77 C6.55 36.26, 1.4 31, 0.01 26.59 C-1.39 22.18, -0.6 16.8, 2.12 12.31 C4.84 7.83, 12.99 1.84, 16.34 -0.3 C19.69 -2.44, 22.12 -0.93, 22.24 -0.52 M10.96 2.54 C14.71 0.41, 21.64 -0.97, 26.46 -0.22 C31.28 0.53, 37.26 3.5, 39.89 7.06 C42.52 10.62, 42.78 16.59, 42.22 21.15 C41.66 25.71, 39.43 31.03, 36.54 34.41 C33.64 37.8, 29.15 40.57, 24.84 41.45 C20.53 42.34, 14.8 41.86, 10.66 39.7 C6.52 37.54, 1.45 33.1, 0.01 28.51 C-1.44 23.91, -0.13 16.74, 1.99 12.13 C4.11 7.53, 11.27 2.59, 12.71 0.88 C14.16 -0.84, 10.71 1.15, 10.64 1.84" stroke="#000000" stroke-width="4" fill="none"></path></g><g stroke-linecap="round" transform="translate(250.36005576288812 272.4500852447246) rotate(0 21.81534250743823 21.075839371592906)"><path d="M31.83 1.21 C35.84 2.83, 39.39 7.6, 41.38 11.79 C43.37 15.99, 44.77 21.95, 43.76 26.37 C42.75 30.78, 39.4 35.8, 35.31 38.3 C31.22 40.79, 24.06 41.6, 19.21 41.33 C14.36 41.05, 9.41 39.84, 6.23 36.64 C3.04 33.45, 0.61 26.66, 0.1 22.14 C-0.41 17.62, 0.59 13.23, 3.15 9.55 C5.7 5.86, 10.79 1.29, 15.41 0.02 C20.04 -1.24, 28.24 1.52, 30.9 1.94 C33.56 2.37, 31.46 2.39, 31.36 2.6 M23.98 -0.02 C28.51 0.37, 33.52 3.99, 36.58 6.99 C39.64 9.98, 41.98 13.79, 42.35 17.94 C42.71 22.09, 41.41 27.94, 38.76 31.89 C36.11 35.85, 30.91 40.19, 26.45 41.66 C21.99 43.13, 15.92 42.86, 11.99 40.73 C8.06 38.61, 4.55 33.05, 2.87 28.91 C1.18 24.76, 0.94 19.89, 1.89 15.85 C2.83 11.82, 5.12 7.55, 8.52 4.71 C11.93 1.86, 19.93 -0.46, 22.32 -1.23 C24.71 -2.01, 22.52 -0.63, 22.87 0.04" stroke="#000000" stroke-width="4" fill="none"></path></g><g stroke-linecap="round" transform="translate(313.9064991369182 273.98239743437523) rotate(0 21.81534250743823 21.075839371592906)"><path d="M29.34 1.42 C33.64 2.77, 38.58 7.89, 40.89 12.04 C43.19 16.19, 44.1 22.19, 43.16 26.31 C42.23 30.44, 39.1 34.22, 35.28 36.81 C31.46 39.39, 24.85 41.85, 20.26 41.84 C15.67 41.82, 11.23 39.8, 7.72 36.71 C4.22 33.62, -0.09 27.85, -0.75 23.29 C-1.42 18.72, 1.22 13.15, 3.74 9.31 C6.26 5.46, 9.59 1.46, 14.37 0.21 C19.14 -1.03, 29.02 1.17, 32.36 1.86 C35.71 2.55, 34.72 3.85, 34.43 4.35 M13.24 0.93 C17.48 -1.21, 24.75 -1.58, 29 -0.27 C33.25 1.04, 36.57 4.93, 38.76 8.77 C40.94 12.62, 42.43 18.24, 42.12 22.78 C41.8 27.32, 39.96 32.64, 36.85 36.01 C33.75 39.38, 28.36 42.49, 23.49 42.99 C18.62 43.49, 11.41 42.01, 7.64 38.99 C3.87 35.98, 1.58 29.74, 0.87 24.91 C0.15 20.07, 1.49 13.99, 3.35 9.97 C5.21 5.94, 10.41 1.94, 12.02 0.75 C13.64 -0.44, 12.59 2.17, 13.04 2.83" stroke="#000000" stroke-width="4" fill="none"></path></g><g stroke-linecap="round" transform="translate(464.9279058616255 235.9417562060479) rotate(0 21.81534250743823 21.075839371592906)"><path d="M14.29 1.05 C18.34 -0.55, 25.61 -0.29, 30.16 1.31 C34.7 2.91, 39.52 6.86, 41.56 10.65 C43.6 14.44, 43.4 19.51, 42.39 24.03 C41.38 28.56, 38.93 34.93, 35.49 37.79 C32.05 40.65, 26.49 41.23, 21.75 41.19 C17.02 41.16, 10.73 40.46, 7.06 37.59 C3.39 34.71, 0.57 28.51, -0.25 23.94 C-1.07 19.36, -1.2 14.21, 2.15 10.14 C5.49 6.07, 15.74 1.2, 19.84 -0.47 C23.94 -2.14, 26.55 -0.18, 26.76 0.12 M15.31 1.5 C19.29 -0.1, 25.48 -1, 29.7 0.53 C33.93 2.07, 38.61 6.36, 40.66 10.7 C42.71 15.05, 43.12 21.91, 42 26.6 C40.88 31.3, 37.44 36.44, 33.92 38.85 C30.41 41.27, 25.3 41.5, 20.92 41.09 C16.53 40.68, 11.22 39.24, 7.61 36.39 C3.99 33.54, 0.11 28.76, -0.76 23.99 C-1.63 19.22, -0.27 11.73, 2.37 7.77 C5.02 3.82, 12.71 1.29, 15.13 0.28 C17.56 -0.72, 16.51 1.35, 16.93 1.74" stroke="#000000" stroke-width="4" fill="none"></path></g><g stroke-linecap="round" transform="translate(416.1183452936141 274.74855352920065) rotate(0 21.81534250743823 21.075839371592906)"><path d="M31.78 3.26 C35.96 5.18, 40.22 10.04, 42.03 13.93 C43.84 17.83, 44.21 22.51, 42.65 26.62 C41.09 30.73, 36.56 36.05, 32.68 38.61 C28.81 41.16, 24.06 42.63, 19.39 41.96 C14.73 41.28, 7.86 37.99, 4.7 34.55 C1.53 31.11, 0.56 25.85, 0.42 21.32 C0.28 16.79, 1.09 10.99, 3.83 7.35 C6.57 3.72, 11.99 0.27, 16.86 -0.48 C21.72 -1.23, 30.19 1.99, 33 2.86 C35.8 3.73, 33.94 4.47, 33.69 4.74 M23.82 -1.17 C28.06 -1.22, 32.34 1.72, 35.39 4.87 C38.45 8.01, 41.33 13.15, 42.14 17.7 C42.95 22.24, 42.49 28.06, 40.25 32.13 C38.01 36.2, 33.35 40.56, 28.67 42.13 C24 43.7, 16.53 43.62, 12.19 41.55 C7.85 39.48, 4.42 34.16, 2.64 29.69 C0.87 25.22, 0.73 19.14, 1.53 14.73 C2.33 10.33, 3.94 5.59, 7.46 3.28 C10.97 0.96, 19.91 1.11, 22.6 0.82 C25.3 0.53, 23.6 1.51, 23.63 1.52" stroke="#000000" stroke-width="4" fill="none"></path></g><g stroke-linecap="round" transform="translate(530.5886889675232 274.7485535292009) rotate(0 21.81534250743823 21.075839371592906)"><path d="M15.32 1.24 C19.57 -0.41, 26.14 -0.06, 30.24 1.38 C34.33 2.83, 37.76 5.9, 39.88 9.9 C42.01 13.91, 43.66 21, 42.97 25.41 C42.28 29.82, 39.39 33.5, 35.72 36.35 C32.06 39.21, 25.75 42.55, 20.98 42.56 C16.21 42.56, 10.69 39.44, 7.11 36.38 C3.53 33.33, 0.35 28.66, -0.5 24.25 C-1.35 19.84, -0.99 14.07, 2.04 9.92 C5.07 5.78, 14.34 1.07, 17.66 -0.64 C20.98 -2.36, 21.9 -0.9, 21.94 -0.38 M19.85 -1.37 C24.25 -2.14, 30.64 0.08, 34.37 3.12 C38.11 6.17, 41.2 12.16, 42.23 16.9 C43.26 21.64, 42.45 27.77, 40.56 31.56 C38.66 35.35, 34.91 37.98, 30.85 39.62 C26.79 41.27, 20.93 42.51, 16.19 41.44 C11.46 40.37, 5.37 37.29, 2.46 33.19 C-0.45 29.09, -1.92 21.53, -1.28 16.82 C-0.64 12.11, 2.46 7.65, 6.32 4.94 C10.17 2.24, 19.2 1.37, 21.84 0.59 C24.47 -0.18, 22.46 0.01, 22.14 0.27" stroke="#000000" stroke-width="4" fill="none"></path></g><g stroke-linecap="round" transform="translate(105.90879229946722 329.2938693962709) rotate(0 21.81534250743823 21.075839371592906)"><path d="M20.49 0.86 C24.95 0.04, 31.22 0.73, 34.85 3.23 C38.48 5.73, 41.09 11.3, 42.27 15.84 C43.44 20.38, 43.99 26.49, 41.88 30.47 C39.76 34.45, 33.87 38, 29.56 39.71 C25.26 41.42, 20.48 42.02, 16.03 40.72 C11.59 39.42, 5.59 35.74, 2.89 31.91 C0.18 28.08, -0.78 22.16, -0.21 17.74 C0.36 13.32, 2.71 8.31, 6.3 5.38 C9.89 2.46, 18.52 1.09, 21.35 0.19 C24.18 -0.71, 23.12 -0.31, 23.29 0 M15.22 -0.26 C19.12 -1.5, 25.64 -0.81, 30.1 1.24 C34.56 3.29, 39.77 7.61, 41.98 12.04 C44.19 16.47, 44.86 23.2, 43.36 27.81 C41.86 32.42, 36.89 37.48, 32.96 39.7 C29.03 41.93, 24.11 42.1, 19.79 41.17 C15.46 40.25, 10.53 37.44, 7.02 34.18 C3.51 30.91, -0.73 25.71, -1.27 21.58 C-1.82 17.45, 0.66 12.73, 3.73 9.42 C6.81 6.1, 15.05 3.29, 17.19 1.68 C19.32 0.07, 16.55 -0.49, 16.54 -0.23" stroke="#000000" stroke-width="4" fill="none"></path></g><g stroke-linecap="round" transform="translate(219.4814270284055 327.4456027080529) rotate(0 22 21.075839371592906)"><path d="M20.56 0.18 C24.7 -0.66, 29.72 0.25, 33.43 2.86 C37.15 5.47, 41.41 11.52, 42.86 15.83 C44.3 20.14, 44.07 24.62, 42.08 28.72 C40.09 32.82, 35.26 38.43, 30.92 40.44 C26.59 42.45, 20.67 42, 16.07 40.77 C11.48 39.55, 6.2 36.7, 3.37 33.09 C0.54 29.47, -1.3 23.69, -0.9 19.08 C-0.5 14.47, 1.97 8.77, 5.79 5.45 C9.61 2.14, 19.09 0.01, 22.01 -0.8 C24.94 -1.6, 23.39 0.21, 23.35 0.62 M26.58 -0.69 C31.04 0.38, 36.15 5, 38.96 9 C41.76 12.99, 43.48 18.96, 43.42 23.27 C43.36 27.57, 41.62 31.63, 38.59 34.81 C35.57 38, 30.26 41.6, 25.28 42.37 C20.31 43.14, 13.06 42.24, 8.73 39.42 C4.41 36.6, 0.6 30.02, -0.68 25.44 C-1.95 20.85, -1.27 15.71, 1.06 11.91 C3.38 8.12, 8.68 4.56, 13.26 2.66 C17.84 0.75, 26.38 0.75, 28.52 0.49 C30.66 0.23, 26.27 0.64, 26.09 1.09" stroke="#000000" stroke-width="4" fill="none"></path></g><g stroke-linecap="round" transform="translate(275.7096432344563 328.2117588028781) rotate(0 21.81534250743823 21.075839371592906)"><path d="M30.64 0.87 C34.69 2.16, 38.46 7.23, 40.61 11.42 C42.76 15.62, 44.68 21.73, 43.55 26.05 C42.41 30.38, 37.57 34.79, 33.78 37.37 C29.99 39.95, 25.45 41.85, 20.82 41.54 C16.2 41.23, 9.52 38.7, 6.01 35.52 C2.5 32.33, 0.26 26.86, -0.21 22.44 C-0.69 18.02, 0.68 12.55, 3.17 8.98 C5.66 5.41, 9.92 2.15, 14.72 1.03 C19.52 -0.08, 28.64 1.75, 31.97 2.31 C35.3 2.88, 34.81 3.95, 34.68 4.43 M11.92 0.76 C16.17 -1.11, 23.58 -1.22, 28.37 0.39 C33.17 2.01, 38.34 6.38, 40.69 10.44 C43.04 14.5, 43.09 20.54, 42.48 24.74 C41.87 28.94, 40.12 32.97, 37.03 35.62 C33.94 38.27, 28.87 40.4, 23.93 40.63 C18.99 40.86, 11.36 39.36, 7.38 37.02 C3.41 34.69, 0.83 30.69, 0.09 26.62 C-0.65 22.55, 0.78 16.96, 2.95 12.6 C5.12 8.23, 11.35 2.09, 13.1 0.43 C14.85 -1.22, 13.21 1.96, 13.47 2.64" stroke="#000000" stroke-width="4" fill="none"></path></g><g stroke-linecap="round" transform="translate(334.2363277249965 327.44560270805243) rotate(0 21.81534250743823 21.075839371592906)"><path d="M21.12 -0.76 C25.37 -0.91, 31.99 2.69, 35.69 5.59 C39.39 8.49, 42.63 12.21, 43.33 16.65 C44.04 21.08, 42.39 28.26, 39.92 32.19 C37.45 36.11, 32.95 38.82, 28.52 40.2 C24.09 41.58, 17.8 42.01, 13.36 40.47 C8.92 38.93, 4.1 34.99, 1.86 30.96 C-0.37 26.92, -1.09 20.76, -0.04 16.27 C1 11.78, 3.8 6.62, 8.13 4.01 C12.46 1.4, 22.22 0.98, 25.95 0.6 C29.68 0.23, 30.41 1.56, 30.5 1.75 M11.18 2.41 C15.09 0.58, 21.57 0.32, 26.41 1.18 C31.25 2.04, 37.18 3.97, 40.23 7.56 C43.28 11.15, 45.28 17.87, 44.71 22.7 C44.13 27.53, 40.43 33.55, 36.77 36.54 C33.11 39.54, 27.43 40.42, 22.77 40.7 C18.12 40.97, 12.37 40.35, 8.86 38.17 C5.34 35.99, 2.67 31.9, 1.68 27.62 C0.68 23.34, 1.36 16.72, 2.89 12.49 C4.42 8.25, 9.19 3.8, 10.85 2.23 C12.51 0.67, 12.35 2.61, 12.87 3.1" stroke="#000000" stroke-width="4" fill="none"></path></g><g stroke-linecap="round" transform="translate(388.9322317414076 326.6794466132277) rotate(0 21.81534250743823 21.075839371592906)"><path d="M29.77 1.45 C34.03 3.07, 39.83 7.71, 41.88 11.69 C43.93 15.67, 43.18 21.03, 42.06 25.33 C40.95 29.62, 38.9 34.8, 35.18 37.46 C31.45 40.13, 24.51 41.65, 19.72 41.31 C14.93 40.96, 9.78 38.44, 6.44 35.39 C3.09 32.35, 0.27 27.33, -0.35 23.03 C-0.98 18.73, 0.15 13.39, 2.68 9.61 C5.21 5.82, 9.59 1.33, 14.84 0.33 C20.09 -0.68, 30.6 2.47, 34.19 3.57 C37.78 4.67, 36.76 6.78, 36.4 6.93 M15.77 0.36 C20.27 -0.83, 26.97 0.53, 31.06 2.59 C35.15 4.65, 38.27 8.99, 40.32 12.74 C42.37 16.49, 44.12 21.13, 43.36 25.09 C42.6 29.05, 39.8 33.81, 35.78 36.5 C31.76 39.18, 24.12 41.1, 19.21 41.21 C14.31 41.33, 9.45 39.96, 6.37 37.18 C3.28 34.41, 1.22 29.41, 0.73 24.58 C0.24 19.76, 0.95 12.09, 3.43 8.24 C5.9 4.38, 13.47 2.46, 15.6 1.45 C17.73 0.44, 15.93 1.88, 16.21 2.17" stroke="#000000" stroke-width="4" fill="none"></path></g><g stroke-linecap="round" transform="translate(448.22507232676094 324.38097832875167) rotate(0 21.81534250743823 21.075839371592906)"><path d="M22.21 0.54 C26.8 0.38, 32.94 1.42, 36.36 4.41 C39.78 7.4, 42.15 13.98, 42.72 18.48 C43.29 22.99, 42.27 27.73, 39.78 31.45 C37.3 35.16, 32.32 39.3, 27.81 40.75 C23.31 42.2, 17.02 41.93, 12.75 40.15 C8.47 38.37, 4.19 34.1, 2.17 30.07 C0.16 26.04, -0.29 20.2, 0.65 15.96 C1.58 11.72, 3.35 7.25, 7.8 4.62 C12.24 2, 23.25 0.66, 27.34 0.22 C31.43 -0.21, 32.55 1.69, 32.32 2.02 M11.85 2.67 C16.02 0.37, 23.28 -1.41, 28.08 -0.34 C32.88 0.73, 38.22 5.11, 40.66 9.11 C43.1 13.1, 43.5 19.38, 42.71 23.61 C41.93 27.84, 39.2 31.49, 35.93 34.48 C32.65 37.47, 27.34 40.81, 23.07 41.58 C18.8 42.34, 13.83 41.56, 10.3 39.06 C6.76 36.57, 3.48 31.04, 1.88 26.6 C0.28 22.16, -1.16 16.42, 0.69 12.42 C2.53 8.42, 10.81 4.08, 12.94 2.6 C15.06 1.12, 13.33 3.35, 13.44 3.55" stroke="#000000" stroke-width="4" fill="none"></path></g><g stroke-linecap="round" transform="translate(505.2194446276319 325.14713442357686) rotate(0 21.81534250743823 21.075839371592906)"><path d="M12.88 2.09 C16.73 -0.08, 21.73 -1.06, 26.24 -0.04 C30.74 0.98, 37.17 4.56, 39.93 8.2 C42.7 11.85, 43.3 17.4, 42.83 21.84 C42.35 26.28, 40.31 31.53, 37.09 34.83 C33.87 38.13, 28.25 41, 23.5 41.64 C18.75 42.28, 12.48 41.24, 8.57 38.67 C4.66 36.11, 1.11 30.64, 0.02 26.25 C-1.07 21.86, -0.58 16.52, 2.05 12.34 C4.67 8.16, 12.86 3.33, 15.79 1.19 C18.72 -0.94, 19.55 -0.57, 19.63 -0.46 M15.82 1.85 C19.77 0.57, 24.86 1.28, 29.14 2.71 C33.41 4.15, 38.98 6.89, 41.47 10.46 C43.96 14.03, 45.35 19.71, 44.07 24.12 C42.79 28.52, 37.74 33.74, 33.8 36.88 C29.86 40.01, 24.78 42.78, 20.42 42.92 C16.07 43.05, 11.08 41.09, 7.68 37.7 C4.28 34.32, 0.73 27.17, 0.02 22.61 C-0.69 18.05, 0.81 13.81, 3.43 10.35 C6.05 6.89, 13.57 3.31, 15.74 1.87 C17.91 0.42, 16.45 1.44, 16.45 1.68" stroke="#000000" stroke-width="4" fill="none"></path></g><g stroke-linecap="round" transform="translate(561.4476608336818 324.38097832875144) rotate(0 21.81534250743823 21.075839371592906)"><path d="M13.73 0.54 C17.68 -1.32, 23.61 0.01, 27.96 1.46 C32.3 2.91, 37.36 5.53, 39.8 9.24 C42.24 12.95, 43.33 19.24, 42.6 23.75 C41.86 28.26, 38.81 33.4, 35.39 36.31 C31.96 39.21, 26.55 41.1, 22.07 41.18 C17.59 41.27, 12.19 39.45, 8.49 36.83 C4.8 34.21, 0.92 29.85, -0.08 25.48 C-1.07 21.12, -0.01 14.81, 2.53 10.62 C5.07 6.43, 13.12 2.01, 15.17 0.36 C17.22 -1.3, 14.94 0.33, 14.82 0.69 M24.16 -0.95 C28.88 -0.97, 34.97 2.75, 38.06 6.2 C41.14 9.66, 42.59 15.56, 42.65 19.78 C42.71 23.99, 41.05 27.99, 38.44 31.5 C35.82 35.01, 31.08 39.28, 26.97 40.85 C22.86 42.42, 17.71 42.71, 13.77 40.93 C9.82 39.15, 5.69 34.33, 3.3 30.19 C0.9 26.04, -1.65 20.32, -0.61 16.05 C0.42 11.78, 5.4 7.05, 9.53 4.57 C13.66 2.08, 21.84 1.85, 24.18 1.14 C26.51 0.43, 23.67 0.13, 23.56 0.29" stroke="#000000" stroke-width="4" fill="none"></path></g><g stroke-linecap="round"><g transform="translate(362.89738242312296 224.60095604138849) rotate(0 -8.486556456052995 2.9314305041834814)"><path d="M0 0 C-2.83 0.98, -14.14 4.89, -16.97 5.86 M0 0 C-2.83 0.98, -14.14 4.89, -16.97 5.86" stroke="#000000" stroke-width="4" fill="none"></path></g></g><g stroke-linecap="round"><g transform="translate(451.1480868107394 229.92242635106948) rotate(0 8.463704529156416 6.402031581166511)"><path d="M0 0 C2.82 2.13, 14.11 10.67, 16.93 12.8 M0 0 C2.82 2.13, 14.11 10.67, 16.93 12.8" stroke="#000000" stroke-width="4" fill="none"></path></g></g><g stroke-linecap="round"><g transform="translate(466.58483195701433 271.0408462201548) rotate(0 -5.90823069040357 4.941769129868135)"><path d="M0 0 C-1.97 1.65, -9.85 8.24, -11.82 9.88 M0 0 C-1.97 1.65, -9.85 8.24, -11.82 9.88" stroke="#000000" stroke-width="4" fill="none"></path></g></g><g stroke-linecap="round"><g transform="translate(509.63753562779743 259.0925912469992) rotate(0 16.30643950592696 7.7358188607269085)"><path d="M0 0 C5.44 2.58, 27.18 12.89, 32.61 15.47 M0 0 C5.44 2.58, 27.18 12.89, 32.61 15.47" stroke="#000000" stroke-width="4" fill="none"></path></g></g><g stroke-linecap="round"><g transform="translate(425.09403466204094 314.87454019311565) rotate(0 -2.9246478198874684 5.683602908909165)"><path d="M0 0 C-0.97 1.89, -4.87 9.47, -5.85 11.37 M0 0 C-0.97 1.89, -4.87 9.47, -5.85 11.37" stroke="#000000" stroke-width="4" fill="none"></path></g></g><g stroke-linecap="round"><g transform="translate(453.31322723619473 313.6205513024871) rotate(0 3.249836407571479 6.051376266053353)"><path d="M0 0 C1.08 2.02, 5.42 10.09, 6.5 12.1 M0 0 C1.08 2.02, 5.42 10.09, 6.5 12.1" stroke="#000000" stroke-width="4" fill="none"></path></g></g><g stroke-linecap="round"><g transform="translate(540.0033784541979 314.3547325859066) rotate(0 -2.012662435438756 5.6961835727299786)"><path d="M0 0 C-0.67 1.9, -3.35 9.49, -4.03 11.39 M0 0 C-0.67 1.9, -3.35 9.49, -4.03 11.39" stroke="#000000" stroke-width="4" fill="none"></path></g></g><g stroke-linecap="round"><g transform="translate(567.7146911278312 312.1913158738788) rotate(0 3.4680485194930952 6.411417774917254)"><path d="M0 0 C1.16 2.14, 5.78 10.69, 6.94 12.82 M0 0 C1.16 2.14, 5.78 10.69, 6.94 12.82" stroke="#000000" stroke-width="4" fill="none"></path></g></g><g stroke-linecap="round"><g transform="translate(345.9600846539147 314.78654161435077) rotate(0 1.620136061971266 6.049195084310327)"><path d="M0 0 C0.54 2.02, 2.7 10.08, 3.24 12.1 M0 0 C0.54 2.02, 2.7 10.08, 3.24 12.1" stroke="#000000" stroke-width="4" fill="none"></path></g></g><g stroke-linecap="round"><g transform="translate(318.8995456975074 310.72073439991016) rotate(0 -6.072473971466707 8.962644940712948)"><path d="M0 0 C-2.02 2.99, -10.12 14.94, -12.14 17.93 M0 0 C-2.02 2.99, -10.12 14.94, -12.14 17.93" stroke="#000000" stroke-width="4" fill="none"></path></g></g><g stroke-linecap="round"><g transform="translate(262.03577016809686 314.0266667205873) rotate(0 -3.756112161599958 6.983441996665761)"><path d="M0 0 C-1.25 2.33, -6.26 11.64, -7.51 13.97 M0 0 C-1.25 2.33, -6.26 11.64, -7.51 13.97" stroke="#000000" stroke-width="4" fill="none"></path></g></g><g stroke-linecap="round"><g transform="translate(249.84954788573827 298.1266726021835) rotate(0 -50.84549521356689 21.212162352115683)"><path d="M0 0 C-16.95 7.07, -84.74 35.35, -101.69 42.42 M0 0 C-16.95 7.07, -84.74 35.35, -101.69 42.42" stroke="#000000" stroke-width="4" fill="none"></path></g></g><g stroke-linecap="round"><g transform="translate(306.78289085790243 254.69527973814627) rotate(0 -10.495688157742961 10.558576897196417)"><path d="M0 0 C-3.5 3.52, -17.49 17.6, -20.99 21.12 M0 0 C-3.5 3.52, -17.49 17.6, -20.99 21.12" stroke="#000000" stroke-width="4" fill="none"></path></g></g><g stroke-linecap="round"><g transform="translate(332.3962085885553 262.89833774545116) rotate(0 0.8055189743897699 4.434192090996817)"><path d="M0 0 C0.27 1.48, 1.34 7.39, 1.61 8.87 M0 0 C0.27 1.48, 1.34 7.39, 1.61 8.87" stroke="#000000" stroke-width="4" fill="none"></path></g></g><g stroke-linecap="round" transform="translate(197.5028427114737 398.0731760277141) rotate(0 35.61426338354431 30.322785236170944)"><path d="M1 -0.37 C18.41 -1.76, 34.12 0.51, 69.98 0.57 M-0.01 0.34 C27.21 -0.93, 54.59 -0.73, 70.75 -0.21 M69.33 -1.86 C71.29 18.86, 71.38 36.79, 69.26 59.98 M70.54 0.58 C70.62 16.69, 70.69 34.24, 71.03 61.01 M71.25 59.53 C53.36 62.47, 32.41 62.51, -0.21 61.87 M70.48 60.2 C47.55 60.46, 23.34 59.59, 0.68 59.83 M0.94 59.77 C1.71 38.47, 1.38 17.9, -1.36 -1.39 M-0.85 60.25 C-1.23 45.67, -1.27 30.66, -0.65 0.41" stroke="#862e9c" stroke-width="4" fill="none"></path></g><g stroke-linecap="round" transform="translate(268.5302343521687 398.0731760277141) rotate(0 28.638186056383688 30.322785236170944)"><path d="M-0.37 1.63 C19.33 0.28, 42.93 -1.53, 57.85 1.76 M0.34 -0.44 C11.92 -0.7, 24.75 -0.47, 57.06 0.12 M55.42 0.1 C56.68 17.99, 55.71 33.61, 56.61 60.13 M57.85 -0.28 C57.8 14.69, 58.71 29.58, 57.65 60.38 M56.16 62.25 C47.36 60.77, 35.6 60.45, 1.22 61.36 M56.83 60.89 C39.56 60.19, 21.06 60.89, -0.82 61.21 M-0.88 61.79 C-0.76 48.91, 0.26 34.19, -1.39 -1.22 M-0.39 59.71 C-0.39 38.51, -0.9 17.67, 0.41 0.46" stroke="#862e9c" stroke-width="4" fill="none"></path></g><g stroke-linecap="round" transform="translate(325.8838172606668 398.596845184608) rotate(0 28.638186056383688 30.322785236170944)"><path d="M1.63 -1.98 C15.97 0.4, 29.56 0.67, 59.04 -1.59 M-0.44 -0.71 C18.24 -0.7, 37.41 -0.41, 57.39 -0.07 M57.38 -0.04 C56.89 11.61, 54.73 24.56, 56.76 59.56 M57 0.05 C56.65 23.84, 56.66 46.12, 57.01 59.71 M58.88 62.54 C40.8 62.27, 23.89 61.55, 0.72 60.8 M57.52 60.57 C40.95 59.45, 25.37 59.57, 0.56 59.72 M1.14 60.06 C0.53 41.16, -1.64 19.42, -1.22 0.98 M-0.93 60.17 C-0.45 42.28, -0.13 26.29, 0.46 -0.63" stroke="#087f5b" stroke-width="4" fill="none"></path></g><g stroke-linecap="round" transform="translate(383.68385853035466 398.0731760277141) rotate(0 28.638186056383688 32.0548510915163)"><path d="M-1.98 0.56 C20.35 -1.71, 40.69 1.3, 55.69 0.62 M-0.71 -0.7 C16.6 -0.23, 33.99 0.37, 57.21 -0.92 M57.23 0.2 C55.67 11.16, 56.01 25.75, 56.19 65.65 M57.33 -0.2 C58.61 14.61, 58.01 29.35, 56.34 64.01 M59.18 64.23 C41.96 64.36, 23.99 65.29, 0.16 63.8 M57.2 64.08 C43.42 64.93, 30.64 64.81, -0.93 64.39 M-0.58 64.92 C0.71 40.49, -1.11 18.37, 0.98 -0.27 M-0.47 63.14 C-0.73 49.7, 0.66 37.05, -0.63 -0.54" stroke="#e67700" stroke-width="4" fill="none"></path></g><g stroke-linecap="round" transform="translate(441.52176370303346 398.0731760277141) rotate(0 28.638186056383688 30.322785236170944)"><path d="M0.56 0.29 C14.88 1.14, 34.02 -1.02, 57.89 -0.03 M-0.7 -0.51 C18.67 0.19, 38.42 0.34, 56.36 -0.95 M57.47 -1.01 C55.34 11.89, 56.79 24.01, 58.82 59.27 M57.07 0.96 C56.91 22.05, 56.84 42.43, 57.17 60.66 M57.39 62.59 C43.08 62.41, 30 61.35, -0.31 59.15 M57.24 59.7 C43.33 59.78, 28.59 59.67, 0.28 61.12 M0.81 61.08 C-1.7 43.72, -1.56 30.57, -0.27 -1.71 M-0.97 59.66 C-0.08 45.24, 1.03 28.4, -0.54 -0.61" stroke="#e67700" stroke-width="4" fill="none"></path></g><g stroke-linecap="round" transform="translate(498.274466658904 398.0731760277141) rotate(0 28.638186056383688 30.322785236170944)"><path d="M0.29 -1.24 C22.43 1.6, 42.13 0.45, 57.25 0.69 M-0.51 -0.48 C14.47 0.52, 29.31 -0.52, 56.32 -0.93 M56.27 -1.97 C56.6 17.99, 56.17 38.56, 55.9 61.8 M58.24 -0.2 C57.68 16.25, 56.37 32.93, 57.29 60.09 M59.22 60.44 C36.72 61.4, 13.89 60.37, -1.49 59.75 M56.33 61.32 C37.86 61.19, 19.14 60.91, 0.47 60.21 M0.43 59.29 C-1.22 37.77, 1.16 17.07, -1.71 -0.79 M-0.98 60 C0.69 48.57, -0.34 35.03, -0.61 0.68" stroke="#e67700" stroke-width="4" fill="none"></path></g><g stroke-linecap="round" transform="translate(555.5508387716839 398.0731760277141) rotate(0 28.638186056383688 30.322785236170944)"><path d="M-1.24 0.57 C13.26 -1.67, 23.61 -0.11, 57.96 -0.87 M-0.48 -0.21 C13.23 0.22, 25.31 -0.66, 56.35 0.05 M55.31 -0.67 C56.82 16.98, 58.88 34.76, 58.43 60.09 M57.08 0.37 C56.89 17.58, 57.05 37.04, 56.72 61.45 M57.07 61.87 C35.37 61.36, 11.72 59.71, -0.89 61.14 M57.95 59.83 C41.11 59.17, 24.1 60.58, -0.44 61.22 M-1.36 59.25 C-1.46 45.2, -0.52 26.09, -0.79 -1.86 M-0.65 61.05 C1.05 44.7, 0.05 29.41, 0.68 0.19" stroke="#1864ab" stroke-width="4" fill="none"></path></g><g transform="translate(202.4165281314431 408.87959132147387) rotate(0 31.5 20)"><text x="0" y="14" font-family="Virgil, Segoe UI Emoji" font-size="16px" fill="#000000" text-anchor="start" style="white-space: pre;" direction="ltr"> id: 0</text><text x="0" y="34" font-family="Virgil, Segoe UI Emoji" font-size="16px" fill="#000000" text-anchor="start" style="white-space: pre;" direction="ltr">comment</text></g><g transform="translate(273.5302343521687 408.39596126388494) rotate(0 23.5 20)"><text x="23.5" y="14" font-family="Virgil, Segoe UI Emoji" font-size="16px" fill="#000000" text-anchor="middle" style="white-space: pre;" direction="ltr">id: 1</text><text x="23.5" y="34" font-family="Virgil, Segoe UI Emoji" font-size="16px" fill="#000000" text-anchor="middle" style="white-space: pre;" direction="ltr">like</text></g><g stroke-linecap="round" transform="translate(42.46971962414477 375.38058610933706) rotate(0 294.8868542292753 48.34545898629631)"><path d="M24.17 0 M24.17 0 C144.6 2.33, 265.2 2, 565.6 0 M24.17 0 C193.73 0.69, 362.4 0.69, 565.6 0 M565.6 0 C582.13 1.67, 589.03 9.36, 589.77 24.17 M565.6 0 C580.85 -0.55, 591.58 8.75, 589.77 24.17 M589.77 24.17 C588.64 40.78, 591.67 59.63, 589.77 72.52 M589.77 24.17 C590.01 33.31, 590.39 43.18, 589.77 72.52 M589.77 72.52 C587.82 87.49, 581.21 97.06, 565.6 96.69 M589.77 72.52 C590.87 89.62, 581.76 97.63, 565.6 96.69 M565.6 96.69 C353.74 96.71, 140.16 96.85, 24.17 96.69 M565.6 96.69 C355.68 95.62, 146.27 95.16, 24.17 96.69 M24.17 96.69 C7.74 97.2, -0.04 87.65, 0 72.52 M24.17 96.69 C9.69 96.83, -0.01 89.42, 0 72.52 M0 72.52 C1.95 55.83, 1.37 41.12, 0 24.17 M0 72.52 C-0.21 57.68, -0.58 42.49, 0 24.17 M0 24.17 C0.5 8.04, 8.48 1.18, 24.17 0 M0 24.17 C1.88 9.46, 8.38 1.65, 24.17 0" stroke="#000000" stroke-width="2" fill="none"></path></g><g transform="translate(230.91658408898343 377.52071908770597) rotate(0 33 10)"><text x="0" y="14" font-family="Virgil, Segoe UI Emoji" font-size="16px" fill="#862e9c" text-anchor="start" style="white-space: pre;" direction="ltr">User 42</text></g><g transform="translate(323.60602485919503 376.9970499308123) rotate(0 29.5 10)"><text x="0" y="14" font-family="Virgil, Segoe UI Emoji" font-size="16px" fill="#087f5b" text-anchor="start" style="white-space: pre;" direction="ltr">User 61</text></g><g transform="translate(430.6475477301385 376.8002681693978) rotate(0 37.5 10)"><text x="0" y="14" font-family="Virgil, Segoe UI Emoji" font-size="16px" fill="#e67700" text-anchor="start" style="white-space: pre;" direction="ltr">User 644</text></g><g transform="translate(544.3976273069843 377.5207190877062) rotate(0 38.5 10)"><text x="0" y="14" font-family="Virgil, Segoe UI Emoji" font-size="16px" fill="#1864ab" text-anchor="start" style="white-space: pre;" direction="ltr">User 783</text></g><g stroke-linecap="round" transform="translate(111.49246741824709 162.44270516434415) rotate(0 81.5 15)"><path d="M-0.82 -0.44 C61.77 0.96, 125.41 1.7, 164.99 -0.76 M0.79 -0.06 C59.92 0.34, 117.98 -1.02, 162.46 0.74 M161.34 -0.85 C162.91 9.32, 162.57 15.81, 164.61 29.17 M163.29 -0.42 C162.96 11.97, 162.44 22.78, 162.76 29.45 M163.27 29.49 C127.19 30.15, 92.18 30.79, 1.47 31.89 M162.9 29.04 C114.45 29.83, 66.36 29.3, 0.07 30.36 M1.99 30.98 C1.1 16.62, -0.64 5.86, 0.94 -1.15 M-0.73 29.4 C0.63 18.71, 0.78 6.08, 0.24 0.11" stroke="#000000" stroke-width="4" fill="none"></path></g><g stroke-linecap="round" transform="translate(39.46479773655824 162.44270516434415) rotate(0 36 15)"><path d="M-0.44 -1.12 C28 -0.08, 55.97 2.28, 71.24 1.25 M-0.06 0.86 C21.15 -0.7, 40.18 -1.11, 72.74 -0.39 M71.15 -0.2 C73.2 9.55, 71.86 21.8, 71.17 31.65 M71.58 -0.11 C72.37 9.03, 71.7 19.07, 71.45 29.17 M71.49 29.54 C50.8 29.98, 28.89 31.57, 1.89 29.94 M71.04 29.82 C46.81 30.04, 20.86 30, 0.36 30.93 M0.98 31.16 C-1.67 19.75, -0.66 11.57, -1.15 1.68 M-0.6 30.72 C0.45 20.98, -0.66 10.47, 0.11 0.11" stroke="#000000" stroke-width="4" fill="none"></path></g><g stroke-linecap="round" transform="translate(111.49246741824754 133.2771342649943) rotate(0 81.54074670438376 14.592903987666546)"><path d="M-0.37 1.5 C47.32 -1.39, 91.91 -0.96, 163.6 1.57 M-0.14 -0.6 C47.42 -0.5, 95.53 -0.87, 162.11 -0.83 M162.54 0.15 C164.66 6.68, 164.7 15.46, 162.27 29.76 M162.46 -0.17 C162.81 6.97, 162.22 15.18, 162.36 29.32 M162.96 31.15 C119.75 32.16, 73.41 31.34, -0.5 28.99 M163.19 28.9 C129.83 29.94, 97.37 29.81, 0.27 30.18 M-0.57 28.61 C0.77 17.85, 1.51 9.41, -1.38 -1.46 M0.87 28.32 C0.03 22.3, -0.1 15.7, 0.91 -0.49" stroke="#000000" stroke-width="4" fill="none"></path></g><g stroke-linecap="round" transform="translate(39.46479773655824 134.99394649883686) rotate(0 36 13.734497870745031)"><path d="M1.5 1.99 C16.8 1.38, 34.78 0.65, 73.57 -0.12 M-0.6 -0.54 C28.53 -0.29, 55.95 -0.88, 71.17 -0.43 M72.15 1.61 C71.37 9.62, 72.64 15.12, 72.57 26.62 M71.83 -0.24 C71.58 7.11, 72.26 15.16, 72.14 27.22 M73.97 28.94 C53.96 27.36, 33.21 26.92, -0.2 25.56 M71.71 27.54 C52.05 28.48, 31.59 27.82, 0.99 27.96 M-0.58 28.41 C-0.93 19.31, 0.81 6.41, -1.46 -1.2 M-0.87 27.71 C0.05 17.37, 0.44 7.95, -0.49 0.69" stroke="#000000" stroke-width="4" fill="none"></path></g><g stroke-linecap="round" transform="translate(111.49246741824709 188.9144280069171) rotate(0 81.39376740585749 13.245979959278998)"><path d="M1.99 -0.76 C56.32 -1.56, 110.67 0.35, 162.67 1.72 M-0.54 0.74 C60.78 1.34, 121.36 0.14, 162.36 -0.1 M164.4 -0.83 C164.37 10.36, 161.9 20.41, 161.94 26.27 M162.55 -0.55 C161.79 9.37, 161.9 18.62, 162.53 26.26 M164.26 28.38 C103.03 29.16, 42.89 27.9, -1.91 26.14 M162.86 26.86 C110.97 26.25, 57.56 27.01, 0.49 27.07 M0.94 25.34 C1.76 21.25, -1.31 13.36, -1.2 1.44 M0.24 26.61 C-0.12 18.42, 0.68 8.84, 0.69 0.71" stroke="#000000" stroke-width="4" fill="none"></path></g><g stroke-linecap="round" transform="translate(39.46479773655824 188.9144280069171) rotate(0 36 15)"><path d="M-0.76 1.25 C19.92 -0.2, 42.08 -0.83, 73.72 1.52 M0.74 -0.39 C20.97 -0.58, 40.38 -0.04, 71.9 0.74 M71.17 1.65 C72.46 7.37, 72.59 15.53, 71.78 30.98 M71.45 -0.83 C72.08 6.41, 72.08 14.01, 71.77 30.67 M73.89 29.94 C51.89 30.03, 29.46 28.62, -0.36 30.48 M72.36 30.93 C49.83 30.32, 28.2 30.54, 0.58 29.2 M-1.15 31.68 C0.68 20.47, -1.37 12.5, 1.44 0.48 M0.11 30.11 C0.77 19.31, -0.23 7.49, 0.71 -0.45" stroke="#000000" stroke-width="4" fill="none"></path></g><g stroke-linecap="round" transform="translate(111.49246741824709 215.38615084948003) rotate(0 81.39376740585749 14.169325035994348)"><path d="M1.25 -0.34 C61.59 2.19, 122.02 2.34, 164.3 -0.28 M-0.39 0.36 C38.13 -2.03, 77.79 -1.3, 163.53 -0.27 M164.44 0.44 C162.2 9.28, 162.17 17.21, 163.77 27.09 M161.96 0.13 C162 8.14, 162.47 15.79, 163.45 28.28 M162.72 29.4 C97.43 29.68, 31.16 29.52, 0.48 28.56 M163.72 28.57 C118.96 29.93, 75.07 29.51, -0.8 28.05 M1.68 28.93 C-1.51 19.2, -1.34 14.4, 0.48 1.73 M0.11 28.85 C0.84 21.8, 0.62 16.97, -0.45 0.72" stroke="#000000" stroke-width="4" fill="none"></path></g><g stroke-linecap="round" transform="translate(39.46479773655824 215.38615084948003) rotate(0 36 15)"><path d="M-0.34 0.52 C30.33 -0.57, 59.24 1.07, 71.72 -1.2 M0.36 -0.98 C16.86 -0.15, 35.28 1.03, 71.73 0.07 M72.44 -0.82 C72.45 10.57, 71.66 23.81, 70.76 29.65 M72.13 -0.72 C71.97 8.03, 71.6 17.23, 71.94 30.98 M73.06 29.5 C44.91 28.06, 17.86 30.46, 0.22 29.42 M72.23 30.27 C50.89 31.16, 28.37 29.87, -0.28 29.71 M0.59 28.62 C-1.28 18.39, 1.61 9.66, 1.73 -1.73 M0.51 30.91 C-0.53 20.96, 0.68 10.08, 0.72 0.07" stroke="#000000" stroke-width="4" fill="none"></path></g><g transform="translate(25.90815619458681 141.50795891684345) rotate(0 4.227517973919134 7.7090033642055005)"><text x="0" y="10.418006728410914" font-family="Virgil, Segoe UI Emoji" font-size="12.249670817674112px" fill="#000000" text-anchor="start" style="white-space: pre;" direction="ltr">0</text></g><g transform="translate(28.394931473357246 167.97968175941048) rotate(0 1.6164039312043883 7.7090033642055005)"><text x="0" y="10.418006728410914" font-family="Virgil, Segoe UI Emoji" font-size="12.249670817674119px" fill="#000000" text-anchor="start" style="white-space: pre;" direction="ltr">1</text></g><g transform="translate(25.65947866670308 194.45140460198115) rotate(0 4.351856737857929 7.7090033642055005)"><text x="0" y="10.418006728410914" font-family="Virgil, Segoe UI Emoji" font-size="12.249670817674119px" fill="#000000" text-anchor="start" style="white-space: pre;" direction="ltr">2</text></g><g transform="translate(25.78381743064506 220.92312744455728) rotate(0 4.227517973919134 7.7090033642055005)"><text x="0" y="10.418006728410914" font-family="Virgil, Segoe UI Emoji" font-size="12.249670817674112px" fill="#000000" text-anchor="start" style="white-space: pre;" direction="ltr">3</text></g><g transform="translate(43.23504238942428 117.15709348752227) rotate(0 25.5 7)"><text x="0" y="10" font-family="Virgil, Segoe UI Emoji" font-size="11.160077456533303px" fill="#000000" text-anchor="start" style="white-space: pre;" direction="ltr">USER ID</text></g><g transform="translate(112.95637808908964 115.94514602846755) rotate(0 83.5 7)"><text x="0" y="10" font-family="Virgil, Segoe UI Emoji" font-size="11.160077456533326px" fill="#000000" text-anchor="start" style="white-space: pre;" direction="ltr">LIST OF CONTENT OFFSETS</text></g><g transform="translate(44.46479773655824 167.44270516434415) rotate(0 31 10)"><text x="31" y="14" font-family="Virgil, Segoe UI Emoji" font-size="16px" fill="#087f5b" text-anchor="middle" style="white-space: pre;" direction="ltr">61</text></g><g transform="translate(67.00034093218164 139.01008467535746) rotate(0 11.5 10)"><text x="0" y="14" font-family="Virgil, Segoe UI Emoji" font-size="16px" fill="#862e9c" text-anchor="start" style="white-space: pre;" direction="ltr">42</text></g><g transform="translate(44.46479773655824 193.9144280069171) rotate(0 31 10)"><text x="31" y="14" font-family="Virgil, Segoe UI Emoji" font-size="16px" fill="#e67700" text-anchor="middle" style="white-space: pre;" direction="ltr">644</text></g><g transform="translate(44.46479773655824 220.38615084948003) rotate(0 31 10)"><text x="31" y="14" font-family="Virgil, Segoe UI Emoji" font-size="16px" fill="#1864ab" text-anchor="middle" style="white-space: pre;" direction="ltr">783</text></g><g stroke-linecap="round" transform="translate(57.28637165429052 389.4756400506484) rotate(0 59.99999999999994 33.182780616640684)"><path d="M16.59 0 M16.59 0 C32.94 -0.3, 52.86 -0.61, 103.41 0 M16.59 0 C46.63 -0.72, 76.8 0.25, 103.41 0 M103.41 0 C113.77 -1.2, 120.55 4.81, 120 16.59 M103.41 0 C114.58 -0.88, 122.17 4.97, 120 16.59 M120 16.59 C118.83 26.69, 120.59 32.19, 120 49.77 M120 16.59 C120.61 24.52, 119.78 33.23, 120 49.77 M120 49.77 C120.6 60.93, 116.34 67.26, 103.41 66.37 M120 49.77 C121.78 62.45, 114.22 65.18, 103.41 66.37 M103.41 66.37 C78.34 67.26, 54.64 64.71, 16.59 66.37 M103.41 66.37 C70.76 66.58, 37.59 65.22, 16.59 66.37 M16.59 66.37 C6.92 64.86, -1.02 59.84, 0 49.77 M16.59 66.37 C4 68.04, -1.54 60.64, 0 49.77 M0 49.77 C1.6 38.4, -1.69 25.37, 0 16.59 M0 49.77 C-0.09 40.84, -0.27 31.07, 0 16.59 M0 16.59 C-1.48 7.31, 4.63 -1.77, 16.59 0 M0 16.59 C1.88 3.5, 5.88 0.58, 16.59 0" stroke="#000000" stroke-width="1" fill="none"></path></g><g stroke-linecap="round"><g transform="translate(58.45436089200314 405.9500081456673) rotate(0 59.16648825264633 -0.053891156208351276)"><path d="M-1.16 0.15 C18.93 -0.11, 99.26 -0.66, 119.49 -0.8 M0.44 -0.82 C20.44 -0.94, 98.58 0.48, 118.45 0.72" stroke="#000000" stroke-width="1" fill="none"></path></g></g><g transform="translate(64.41154246451674 411.197926097056) rotate(0 53 20)"><text x="0" y="14" font-family="Virgil, Segoe UI Emoji" font-size="16px" fill="#000000" text-anchor="start" style="white-space: pre;" direction="ltr">-offset table</text><text x="0" y="34" font-family="Virgil, Segoe UI Emoji" font-size="16px" fill="#000000" text-anchor="start" style="white-space: pre;" direction="ltr">-schema</text></g><g stroke-linecap="round"><g transform="translate(154.61402156682198 371.2211745031815) rotate(259.0459373565992 -75.27878352035447 -42.80228069431632)"><path d="M0 0 C-17.98 -13.68, -82.8 -70.32, -107.89 -82.08 C-132.98 -93.85, -143.45 -72.51, -150.56 -70.6 M0 0 C-17.98 -13.68, -82.8 -70.32, -107.89 -82.08 C-132.98 -93.85, -143.45 -72.51, -150.56 -70.6" stroke="#000000" stroke-width="4" fill="none"></path></g><g transform="translate(154.61402156682198 371.2211745031815) rotate(259.0459373565992 -75.27878352035447 -42.80228069431632)"><path d="M-150.56 -70.6 L-143.31 -83.73 L-135.84 -73.49 L-150.56 -70.6" stroke="none" stroke-width="0" fill="#000000" fill-rule="evenodd"></path><path d="M-150.56 -70.6 C-148.09 -75.07, -145.62 -79.54, -143.31 -83.73 M-150.56 -70.6 C-148.53 -74.26, -146.51 -77.93, -143.31 -83.73 M-143.31 -83.73 C-140.45 -79.81, -137.6 -75.9, -135.84 -73.49 M-143.31 -83.73 C-140.87 -80.38, -138.43 -77.04, -135.84 -73.49 M-135.84 -73.49 C-139.27 -72.81, -142.7 -72.14, -150.56 -70.6 M-135.84 -73.49 C-140.15 -72.64, -144.47 -71.79, -150.56 -70.6 M-150.56 -70.6 C-150.56 -70.6, -150.56 -70.6, -150.56 -70.6 M-150.56 -70.6 C-150.56 -70.6, -150.56 -70.6, -150.56 -70.6" stroke="#000000" stroke-width="4" fill="none"></path></g></g><g transform="translate(76.83030657151119 388.1437219629046) rotate(0 44.99999999999994 10)"><text x="0" y="14" font-family="Virgil, Segoe UI Emoji" font-size="16px" fill="#000000" text-anchor="start" style="white-space: pre;" direction="ltr">blob header</text></g><g transform="translate(168.02793170261225 221.24715454236355) rotate(0 12.5 10)"><text x="0" y="14" font-family="Virgil, Segoe UI Emoji" font-size="16px" fill="#000000" text-anchor="start" style="white-space: pre;" direction="ltr">721</text></g><g transform="translate(178.37579031204223 167.1137713412378) rotate(0 10.5 10)"><text x="0" y="14" font-family="Virgil, Segoe UI Emoji" font-size="16px" fill="#000000" text-anchor="start" style="white-space: pre;" direction="ltr">55</text></g><g transform="translate(147.25112227657405 194.3478558722719) rotate(0 51 10)"><text x="0" y="14" font-family="Virgil, Segoe UI Emoji" font-size="16px" fill="#000000" text-anchor="start" style="white-space: pre;" direction="ltr">78, 551, 589</text></g><g transform="translate(164.48084922477983 137.10069859275052) rotate(0 23 10)"><text x="0" y="14" font-family="Virgil, Segoe UI Emoji" font-size="16px" fill="#000000" text-anchor="start" style="white-space: pre;" direction="ltr">0, 30</text></g><g transform="translate(393.46816413065835 398.76136984390166) rotate(0 18 30)"><text x="0" y="14" font-family="Virgil, Segoe UI Emoji" font-size="16px" fill="#000000" text-anchor="start" style="white-space: pre;" direction="ltr">id: 0</text><text x="0" y="34" font-family="Virgil, Segoe UI Emoji" font-size="16px" fill="#000000" text-anchor="start" style="white-space: pre;" direction="ltr">text</text><text x="0" y="54" font-family="Virgil, Segoe UI Emoji" font-size="16px" fill="#000000" text-anchor="start" style="white-space: pre;" direction="ltr">post</text></g><g transform="translate(110.9114022666065 338.4975976688928) rotate(0 18 10)"><text x="0" y="14" font-family="Virgil, Segoe UI Emoji" font-size="16px" fill="#000000" text-anchor="start" style="white-space: pre;" direction="ltr">hash</text></g><g transform="translate(223.8734930087985 337.4620290300255) rotate(0 18 10)"><text x="0" y="14" font-family="Virgil, Segoe UI Emoji" font-size="16px" fill="#000000" text-anchor="start" style="white-space: pre;" direction="ltr">hash</text></g><g transform="translate(279.5323815742306 338.7716499374477) rotate(0 18 10)"><text x="0" y="14" font-family="Virgil, Segoe UI Emoji" font-size="16px" fill="#000000" text-anchor="start" style="white-space: pre;" direction="ltr">hash</text></g><g transform="translate(338.4653224082167 337.46202903002575) rotate(0 18 10)"><text x="0" y="14" font-family="Virgil, Segoe UI Emoji" font-size="16px" fill="#000000" text-anchor="start" style="white-space: pre;" direction="ltr">hash</text></g><g transform="translate(392.1597796125161 338.1168394837367) rotate(0 18 10)"><text x="0" y="14" font-family="Virgil, Segoe UI Emoji" font-size="16px" fill="#000000" text-anchor="start" style="white-space: pre;" direction="ltr">hash</text></g><g transform="translate(452.40234135392416 334.1879767614706) rotate(0 18 10)"><text x="0" y="14" font-family="Virgil, Segoe UI Emoji" font-size="16px" fill="#000000" text-anchor="start" style="white-space: pre;" direction="ltr">hash</text></g><g transform="translate(510.025661280489 334.8427872151816) rotate(0 18 10)"><text x="0" y="14" font-family="Virgil, Segoe UI Emoji" font-size="16px" fill="#000000" text-anchor="start" style="white-space: pre;" direction="ltr">hash</text></g><g transform="translate(564.3749289384989 333.53316630775987) rotate(0 18 10)"><text x="0" y="14" font-family="Virgil, Segoe UI Emoji" font-size="16px" fill="#000000" text-anchor="start" style="white-space: pre;" direction="ltr">hash</text></g><g transform="translate(346.92269910018786 186.42965971454407) rotate(0 71 20)"><text x="71" y="14" font-family="Virgil, Segoe UI Emoji" font-size="16px" fill="#000000" text-anchor="middle" style="white-space: pre;" direction="ltr">Merkle root </text><text x="71" y="34" font-family="Virgil, Segoe UI Emoji" font-size="16px" fill="#000000" text-anchor="middle" style="white-space: pre;" direction="ltr">(hash):        </text></g><g stroke-linecap="round" transform="translate(48.52745471178741 51.05856745568519) rotate(0 13.5 15)"><path d="M1.37 -0.46 C7.98 1.19, 19.26 -0.54, 28.33 -1.54 M-0.11 -0.69 C7.52 1.07, 15.13 0.63, 27.92 -0.25 M25.71 0.28 C25.3 6.25, 28.81 15.2, 26.5 29.53 M26.24 -0.86 C26.41 6.08, 26.27 14.38, 27.17 29.61 M27.4 30.91 C22.02 30.9, 14.35 30.99, -0.96 30.52 M27.04 29.96 C17.29 30.37, 5.65 29.24, 0.07 30.26 M1.36 28.96 C-1.09 21.78, -0.21 11.73, 1.88 -0.59 M0.32 30.42 C0.91 20.59, 0.33 12.13, -0.45 0.2" stroke="#000000" stroke-width="4" fill="none"></path></g><g stroke-linecap="round" transform="translate(75.81723172184638 50.12144586646525) rotate(0 23.457225833908524 15.98523640022131)"><path d="M-0.99 1.48 C13.74 0.92, 24.37 0.28, 46.88 -1.6 M-0.89 -0.09 C12 0.21, 22.61 0.62, 46.22 0.05 M47.11 -0.99 C48.6 9.86, 47.48 15.16, 47.83 31.03 M47.41 -0.01 C47.71 9.51, 46.67 21.76, 46.94 32.32 M46.78 32.28 C34.27 30.64, 21.3 31.69, -1.37 30.84 M46.46 31.87 C35.18 31.9, 24.05 32.42, 0.26 31.49 M1.48 31.41 C-1.62 25.44, 1.78 20.17, -1.73 1.76 M-0.38 31.84 C0.57 24.74, -0.74 16.78, 0.62 0.28" stroke="#000000" stroke-width="4" fill="none"></path></g><g transform="translate(88.84449987624544 54.46685548178198) rotate(0 11.5 10.000000000000057)"><text x="0" y="14" font-family="Virgil, Segoe UI Emoji" font-size="16px" fill="#000000" text-anchor="start" style="white-space: pre;" direction="ltr">.....</text></g><g transform="translate(53.52745471178741 56.05856745568519) rotate(0 8.5 10)"><text x="8.5" y="14" font-family="Virgil, Segoe UI Emoji" font-size="16px" fill="#000000" text-anchor="middle" style="white-space: pre;" direction="ltr">4</text></g><g transform="translate(262.4582823352532 277.8427839828429) rotate(0 8.5 12.5)"><text x="0" y="18" font-family="Virgil, Segoe UI Emoji" font-size="20px" fill="#000000" text-anchor="start" style="white-space: pre;" direction="ltr">...</text></g><g transform="translate(326.1845995704416 280.07879511390286) rotate(0 8.5 12.5)"><text x="0" y="18" font-family="Virgil, Segoe UI Emoji" font-size="20px" fill="#000000" text-anchor="start" style="white-space: pre;" direction="ltr">...</text></g><g transform="translate(427.9231060336376 281.19680067943216) rotate(0 8.5 12.5)"><text x="0" y="18" font-family="Virgil, Segoe UI Emoji" font-size="20px" fill="#000000" text-anchor="start" style="white-space: pre;" direction="ltr">...</text></g><g transform="translate(541.9596737176598 280.6377978966674) rotate(0 8.5 12.5)"><text x="0" y="18" font-family="Virgil, Segoe UI Emoji" font-size="20px" fill="#000000" text-anchor="start" style="white-space: pre;" direction="ltr">...</text></g><g transform="translate(479.3513620480003 243.18461145142476) rotate(0 8.5 12.5)"><text x="0" y="18" font-family="Virgil, Segoe UI Emoji" font-size="20px" fill="#000000" text-anchor="start" style="white-space: pre;" direction="ltr">...</text></g><g transform="translate(316.12254948067516 226.97353075124522) rotate(0 8.5 12.5)"><text x="0" y="18" font-family="Virgil, Segoe UI Emoji" font-size="20px" fill="#000000" text-anchor="start" style="white-space: pre;" direction="ltr">...</text></g><g transform="translate(565.2962415559305 403.01301015328806) rotate(0 22 25)"><text x="0" y="18" font-family="Virgil, Segoe UI Emoji" font-size="20px" fill="#000000" text-anchor="start" style="white-space: pre;" direction="ltr">id: 0</text><text x="0" y="43" font-family="Virgil, Segoe UI Emoji" font-size="20px" fill="#000000" text-anchor="start" style="white-space: pre;" direction="ltr">like</text></g><g transform="translate(333.43834035672353 402.8387683150919) rotate(0 22 25)"><text x="0" y="18" font-family="Virgil, Segoe UI Emoji" font-size="20px" fill="#000000" text-anchor="start" style="white-space: pre;" direction="ltr">id: 0</text><text x="0" y="43" font-family="Virgil, Segoe UI Emoji" font-size="20px" fill="#000000" text-anchor="start" style="white-space: pre;" direction="ltr">like</text></g><g transform="translate(501.13917518616654 405.4466539799233) rotate(0 31 30)"><text x="0" y="14" font-family="Virgil, Segoe UI Emoji" font-size="16px" fill="#000000" text-anchor="start" style="white-space: pre;" direction="ltr"> id: 2</text><text x="0" y="34" font-family="Virgil, Segoe UI Emoji" font-size="16px" fill="#000000" text-anchor="start" style="white-space: pre;" direction="ltr">comment</text><text x="0" y="54" font-family="Virgil, Segoe UI Emoji" font-size="16px" fill="#000000" text-anchor="start" style="white-space: pre;" direction="ltr"></text></g><g transform="translate(455.44554334430427 406.1707492728607) rotate(0 14.5 20)"><text x="0" y="14" font-family="Virgil, Segoe UI Emoji" font-size="16px" fill="#000000" text-anchor="start" style="white-space: pre;" direction="ltr">id: 1</text><text x="0" y="34" font-family="Virgil, Segoe UI Emoji" font-size="16px" fill="#000000" text-anchor="start" style="white-space: pre;" direction="ltr">like</text></g><g stroke-linecap="round"><g transform="translate(45.7263740201729 66.96678227323036) rotate(0 -17.1490055444728 1.0938061301027346)"><path d="M-0.51 -0.78 C-6.3 -0.36, -29.49 1.02, -35.25 1.58 M1.43 1.43 C-4.4 2.1, -29.61 3.09, -35.73 2.95" stroke="#000000" stroke-width="2" fill="none"></path></g><g transform="translate(45.7263740201729 66.96678227323036) rotate(0 -17.1490055444728 1.0938061301027346)"><path d="M-19.98 -2.13 C-23.72 -0.24, -26.6 0.27, -34.55 2.75 M-19.57 -4.35 C-24.45 -1.83, -29.41 0.66, -34.84 2.34" stroke="#000000" stroke-width="2" fill="none"></path></g><g transform="translate(45.7263740201729 66.96678227323036) rotate(0 -17.1490055444728 1.0938061301027346)"><path d="M-19.8 10.26 C-23.49 8.93, -26.42 6.21, -34.55 2.75 M-19.39 8.03 C-24.34 6.95, -29.35 5.83, -34.84 2.34" stroke="#000000" stroke-width="2" fill="none"></path></g></g><g stroke-linecap="round" transform="translate(163.00532651553522 49.72730012833847) rotate(0 13.5 15)"><path d="M-1.53 -1.73 C8.06 0.32, 13.51 -1.89, 25.01 -1.1 M-0.41 -0.87 C6.98 0.74, 11.66 0.2, 27.08 0.19 M28.86 0.16 C26.7 11.87, 25.56 18.29, 27.49 31.71 M27.99 0.95 C26.77 7.03, 26.35 13.48, 27.64 29.61 M26.13 31.51 C18.74 30.81, 6.13 29.15, 1.8 29.08 M26.85 29.47 C16.07 30.02, 6.75 29.83, 0.39 29.5 M-0.37 30.43 C1 19.19, 0.67 12.92, 0.31 -0.46 M-0.52 30.55 C-0.81 19.23, 0.69 9.21, 0.55 0.56" stroke="#000000" stroke-width="4" fill="none"></path></g><g stroke-linecap="round" transform="translate(190.2951035255942 48.7901785391183) rotate(0 23.457225833908524 15.98523640022131)"><path d="M-1.73 1.64 C19.16 1.03, 35.53 -1.63, 45.81 -1.55 M-0.87 0.97 C14.71 -0.18, 28.38 0.27, 47.1 0.3 M47.07 -0.42 C48.97 9.3, 45.49 22.2, 48.63 30.48 M47.87 -0.19 C47.36 8.61, 47.04 19.09, 46.53 32.76 M48.43 33.95 C35.56 31.37, 21.68 33.57, -0.92 33.43 M46.39 31.12 C30.85 31.8, 14.52 32.29, -0.5 31.96 M0.43 33.11 C-1.71 21.67, 0.99 10.06, -0.46 0.75 M0.55 31.25 C-0.62 22.16, -0.51 11.32, 0.56 -0.96" stroke="#000000" stroke-width="4" fill="none"></path></g><g transform="translate(203.322371679993 53.13558815443514) rotate(0 11.5 10)"><text x="0" y="14" font-family="Virgil, Segoe UI Emoji" font-size="16px" fill="#000000" text-anchor="start" style="white-space: pre;" direction="ltr">.....</text></g><g transform="translate(168.00532651553522 54.72730012833847) rotate(0 8.5 10)"><text x="8.5" y="14" font-family="Virgil, Segoe UI Emoji" font-size="16px" fill="#000000" text-anchor="middle" style="white-space: pre;" direction="ltr">5</text></g><g stroke-linecap="round"><g transform="translate(160.2042458239207 65.63551494588353) rotate(0 -18.3959559698946 0.584339275895104)"><path d="M0.35 0.4 C-5.67 0.35, -30.94 0.6, -37.14 0.69 M-0.93 -0.43 C-6.49 -0.47, -28.78 1.23, -34.94 1.6" stroke="#000000" stroke-width="2" fill="none"></path></g><g transform="translate(160.2042458239207 65.63551494588353) rotate(0 -18.3959559698946 0.584339275895104)"><path d="M-17.78 -7.2 C-23.66 -5.11, -26.79 -2.5, -36.52 0.85 M-18.72 -5.75 C-21.77 -3.91, -25.08 -2.17, -34.76 2.44" stroke="#000000" stroke-width="2" fill="none"></path></g><g transform="translate(160.2042458239207 65.63551494588353) rotate(0 -18.3959559698946 0.584339275895104)"><path d="M-16.95 5.15 C-23.11 4.61, -26.42 4.59, -36.52 0.85 M-17.89 6.6 C-21.23 5.82, -24.72 4.94, -34.76 2.44" stroke="#000000" stroke-width="2" fill="none"></path></g></g><g stroke-linecap="round" transform="translate(282.02405980283834 49.698905129103764) rotate(0 13.5 15)"><path d="M-1.11 0.26 C10.43 -1.79, 15.11 1.91, 26.13 -0.57 M0.68 0.83 C10.26 -0.7, 19.51 -0.34, 27.71 0.53 M25.61 -1.61 C26.61 9.66, 28.89 18.5, 27.07 28.52 M27.21 0.69 C26.34 10.28, 26.76 21.1, 27.81 30.39 M26.75 28.29 C19.58 28.08, 13.76 30.64, -1.59 28.83 M26.26 30.91 C20.9 29.72, 13.88 29.37, 0.21 29.64 M-0.26 28.34 C0.51 19.89, 0.46 9.25, 0.34 1.42 M0.17 29.15 C0.31 19.14, -0.55 7.21, -0.73 0.68" stroke="#000000" stroke-width="4" fill="none"></path></g><g stroke-linecap="round" transform="translate(309.76397288878184 11.753157289498631) rotate(0 167.07258728115266 64.74266234858823)"><path d="M0.18 1.29 C102.85 -0.07, 209.41 0.66, 333.76 0.66 M0.56 0.57 C94.82 -1.09, 190.3 -1.07, 334.5 0.07 M332.54 -0.3 C333.25 37.1, 332.79 70.33, 332.67 130.58 M334.83 -0.7 C334.9 40.21, 335.09 81.78, 334.54 128.77 M332.99 128.63 C229.22 128.59, 127.29 128.13, -0.79 128.93 M334.76 130.09 C209.05 128.4, 84.08 127.96, -0.24 129.63 M-1.66 130.17 C-1.55 83.7, -2.53 36.98, 1.42 1.75 M-0.85 129.78 C0.02 90.79, -0.29 52.51, 0.68 0.58" stroke="#000000" stroke-width="4" fill="none"></path></g><g transform="translate(287.02405980283834 54.698905129103764) rotate(0 8.5 10)"><text x="8.5" y="14" font-family="Virgil, Segoe UI Emoji" font-size="16px" fill="#000000" text-anchor="middle" style="white-space: pre;" direction="ltr">6</text></g><g stroke-linecap="round"><g transform="translate(279.1051750681672 62.5390513122112) rotate(0 -19.315880403755045 1.0367118748366693)"><path d="M-1.08 -1.17 C-7.58 -1.03, -32.3 1.27, -38.84 1.98 M0.56 0.84 C-6.01 1.64, -32.22 3.2, -39.19 3.24" stroke="#000000" stroke-width="2" fill="none"></path></g><g transform="translate(279.1051750681672 62.5390513122112) rotate(0 -19.315880403755045 1.0367118748366693)"><path d="M-22.58 -2.4 C-27.24 -2.68, -31.2 -0.05, -38.51 4.61 M-19.96 -4.54 C-26.96 -1, -34.67 1.07, -40.15 2.55" stroke="#000000" stroke-width="2" fill="none"></path></g><g transform="translate(279.1051750681672 62.5390513122112) rotate(0 -19.315880403755045 1.0367118748366693)"><path d="M-22.07 11.3 C-27.03 6.72, -31.14 5.07, -38.51 4.61 M-19.46 9.15 C-26.76 7.45, -34.67 4.28, -40.15 2.55" stroke="#000000" stroke-width="2" fill="none"></path></g></g><g stroke-linecap="round"><g transform="translate(626.2377991473802 381.81824871496326) rotate(0 -5.551177363503939 -79.21057972586812)"><path d="M0.04 -0.28 C-1.88 -26.47, -9.45 -132.15, -11.14 -158.14 M-1.39 -1.47 C-2.96 -27.45, -7.24 -130.98, -8.8 -157.08" stroke="#000000" stroke-width="2" fill="none"></path></g><g transform="translate(626.2377991473802 381.81824871496326) rotate(0 -5.551177363503939 -79.21057972586812)"><path d="M2.38 -130.59 C-2.3 -138.09, -3 -148.42, -9.07 -155.6 M1.88 -129.41 C-2.18 -138.44, -5.64 -146.4, -9.67 -156.78" stroke="#000000" stroke-width="2" fill="none"></path></g><g transform="translate(626.2377991473802 381.81824871496326) rotate(0 -5.551177363503939 -79.21057972586812)"><path d="M-18.12 -129.58 C-15.99 -137.42, -9.89 -148.09, -9.07 -155.6 M-18.62 -128.4 C-16.03 -137.93, -12.82 -146.22, -9.67 -156.78" stroke="#000000" stroke-width="2" fill="none"></path></g></g><g transform="translate(44.84838528641717 10) rotate(0 116.5 12.5)"><text x="0" y="18" font-family="Virgil, Segoe UI Emoji" font-size="20px" fill="#000000" text-anchor="start" style="white-space: pre;" direction="ltr">the Headjack blockchain</text></g><g stroke-linecap="round"><g transform="translate(322.354010306037 544.7117279968767) rotate(0 -14.765432999880545 14.660873813021226)"><path d="M0.01 1.13 C-4.97 5.82, -23.79 22.89, -28.74 27.2 M-1.45 0.67 C-6.65 5.64, -24.64 24.07, -29.54 28.65" stroke="#000000" stroke-width="2" fill="none"></path></g><g transform="translate(322.354010306037 544.7117279968767) rotate(0 -14.765432999880545 14.660873813021226)"><path d="M-19.08 11.12 C-24.76 16.57, -28.43 25.11, -29.74 29.47 M-21.6 9.76 C-23.69 15.76, -25.67 21.64, -29.24 27.95" stroke="#000000" stroke-width="2" fill="none"></path></g><g transform="translate(322.354010306037 544.7117279968767) rotate(0 -14.765432999880545 14.660873813021226)"><path d="M-9.51 20.85 C-18.86 22.49, -26.29 27.21, -29.74 29.47 M-12.03 19.5 C-16.98 22.59, -21.8 25.57, -29.24 27.95" stroke="#000000" stroke-width="2" fill="none"></path></g></g><g stroke-linecap="round"><g transform="translate(366.1482779169705 550.3054742450903) rotate(0 -6.268522419778833 13.459096104983018)"><path d="M-1.16 0.51 C-3.15 4.74, -10.24 21.89, -12.17 26.13 M0.43 -0.27 C-1.68 4.02, -10.61 22.7, -12.97 27.19" stroke="#000000" stroke-width="2" fill="none"></path></g><g transform="translate(366.1482779169705 550.3054742450903) rotate(0 -6.268522419778833 13.459096104983018)"><path d="M-10.66 12.77 C-12.8 16.16, -13.51 21.59, -12.7 25.82 M-11.94 12.88 C-12.27 15.77, -12.47 19.87, -13.64 26.7" stroke="#000000" stroke-width="2" fill="none"></path></g><g transform="translate(366.1482779169705 550.3054742450903) rotate(0 -6.268522419778833 13.459096104983018)"><path d="M-1.55 17.3 C-6.28 19.33, -9.56 23.48, -12.7 25.82 M-2.83 17.42 C-5.46 19.11, -7.99 22.05, -13.64 26.7" stroke="#000000" stroke-width="2" fill="none"></path></g></g><g stroke-linecap="round"><g transform="translate(419.0748839809578 550.9020639749514) rotate(0 -2.193774214047494 14.405037792663506)"><path d="M0.83 -0.62 C0.09 3.94, -3.59 23.11, -4.66 27.95 M-0.19 1.66 C-1.01 6.37, -4.17 25.33, -5.22 29.43" stroke="#000000" stroke-width="2" fill="none"></path></g><g transform="translate(419.0748839809578 550.9020639749514) rotate(0 -2.193774214047494 14.405037792663506)"><path d="M-8.1 16.2 C-6.8 19.06, -5.61 23.12, -5.33 29.54 M-7.28 15.32 C-7.18 18.18, -6.85 21.8, -4.89 28.96" stroke="#000000" stroke-width="2" fill="none"></path></g><g transform="translate(419.0748839809578 550.9020639749514) rotate(0 -2.193774214047494 14.405037792663506)"><path d="M1.48 18.13 C0.04 20.51, -1.5 24.02, -5.33 29.54 M2.3 17.25 C0.3 19.72, -1.45 22.92, -4.89 28.96" stroke="#000000" stroke-width="2" fill="none"></path></g></g><g stroke-linecap="round"><g transform="translate(479.3354060382278 546.8326363838606) rotate(0 7.6273009626980866 11.91110162368227)"><path d="M0.17 -0.05 C2.82 4.07, 13.99 19.85, 16.46 23.92 M-1.2 -1.12 C1.3 3.19, 12.78 20.52, 15.89 24.95" stroke="#000000" stroke-width="2" fill="none"></path></g><g transform="translate(479.3354060382278 546.8326363838606) rotate(0 7.6273009626980866 11.91110162368227)"><path d="M3.89 17.22 C6.83 18.36, 11.54 21.77, 15.87 26.23 M3.38 16.47 C7.6 19.79, 11.2 21.86, 15.49 24.98" stroke="#000000" stroke-width="2" fill="none"></path></g><g transform="translate(479.3354060382278 546.8326363838606) rotate(0 7.6273009626980866 11.91110162368227)"><path d="M12.23 11.56 C12.24 14.68, 14.06 20.05, 15.87 26.23 M11.72 10.82 C13.27 15.85, 14.25 19.69, 15.49 24.98" stroke="#000000" stroke-width="2" fill="none"></path></g></g><g transform="translate(185.00089199000672 568.6009244171722) rotate(0 51.5 12.5)"><text x="0" y="18" font-family="Virgil, Segoe UI Emoji" font-size="20px" fill="#000000" text-anchor="start" style="white-space: pre;" direction="ltr">application</text></g><g transform="translate(318.47732973360166 580.2501673855055) rotate(0 26 12.5)"><text x="0" y="18" font-family="Virgil, Segoe UI Emoji" font-size="20px" fill="#000000" text-anchor="start" style="white-space: pre;" direction="ltr">nonce</text></g><g transform="translate(391.5893637309457 583.9039366809544) rotate(0 21.5 12.5)"><text x="0" y="18" font-family="Virgil, Segoe UI Emoji" font-size="20px" fill="#000000" text-anchor="start" style="white-space: pre;" direction="ltr">user</text></g><g transform="translate(459.34000675733137 572.7362482700117) rotate(0 50 12.5)"><text x="0" y="18" font-family="Virgil, Segoe UI Emoji" font-size="20px" fill="#000000" text-anchor="start" style="white-space: pre;" direction="ltr">content id</text></g><g stroke-linecap="round" transform="translate(150.46913319428313 507.3868313367576) rotate(0 235.53638633119192 54.24757779355741)"><path d="M340.86 5.29 C362.3 6.53, 381.84 10.63, 398.63 14.49 C415.43 18.35, 430.35 23.59, 441.65 28.46 C452.96 33.34, 461.64 38.7, 466.45 43.76 C471.27 48.82, 472.75 53.68, 470.54 58.81 C468.32 63.94, 461.93 69.52, 453.16 74.51 C444.38 79.51, 432.57 84.69, 417.9 88.8 C403.22 92.91, 384.39 96.09, 365.1 99.17 C345.81 102.24, 324.4 105.56, 302.16 107.26 C279.92 108.97, 254.78 109.77, 231.66 109.39 C208.54 109.01, 185.29 106.7, 163.45 104.99 C141.61 103.28, 119.61 102.14, 100.63 99.11 C81.65 96.08, 64.02 91.07, 49.59 86.82 C35.17 82.57, 22.12 78.45, 14.08 73.58 C6.04 68.72, 2.62 62.85, 1.35 57.62 C0.07 52.39, 1.22 47.47, 6.44 42.21 C11.67 36.94, 20.72 30.82, 32.68 26.03 C44.64 21.24, 60.86 16.99, 78.23 13.46 C95.59 9.94, 116.09 6.96, 136.89 4.89 C157.69 2.82, 180.08 1.63, 203.02 1.05 C225.97 0.48, 249.57 0.24, 274.57 1.43 C299.57 2.62, 338.22 6.83, 353.02 8.21 C367.82 9.59, 365.15 9.05, 363.38 9.72 M256.91 -0.76 C278.97 -0.74, 303.91 2.97, 325.67 5.32 C347.44 7.67, 369.5 10.36, 387.49 13.34 C405.48 16.32, 421.34 18.69, 433.59 23.22 C445.83 27.75, 454.83 35, 460.96 40.54 C467.09 46.08, 470.82 51.1, 470.38 56.45 C469.93 61.8, 465.6 68, 458.3 72.66 C451 77.31, 440.13 80.44, 426.59 84.38 C413.04 88.32, 395.17 92.78, 377.05 96.31 C358.93 99.85, 339.23 103.53, 317.87 105.6 C296.51 107.68, 272.41 108.76, 248.88 108.76 C225.35 108.76, 199.54 107.05, 176.71 105.6 C153.88 104.14, 131.34 102.81, 111.9 100.05 C92.45 97.3, 75.04 93.18, 60.04 89.07 C45.03 84.95, 31.45 79.84, 21.87 75.35 C12.28 70.86, 5.69 67.21, 2.54 62.15 C-0.62 57.1, -1 50.29, 2.95 45 C6.91 39.72, 15.67 35.32, 26.28 30.42 C36.88 25.53, 50.68 19.49, 66.6 15.65 C82.52 11.8, 101.48 9.73, 121.78 7.35 C142.08 4.97, 165.89 2.35, 188.41 1.38 C210.93 0.41, 245.11 1.34, 256.9 1.52 C268.7 1.69, 259.47 1.54, 259.17 2.44" stroke="#000000" stroke-width="2" fill="none"></path></g><g transform="translate(256.83259023890673 519.8758564582166) rotate(0 22.5 12.5)"><text x="0" y="18" font-family="Virgil, Segoe UI Emoji" font-size="20px" fill="#000000" text-anchor="start" style="white-space: pre;" direction="ltr">URI:</text></g><g stroke-linecap="round"><g transform="translate(489.3189999617912 511.9353361948291) rotate(0 18.118452671426894 -25.333439257086184)"><path d="M-1.16 0.81 C5.22 -7.56, 30.97 -41.25, 37.4 -49.62 M0.43 0.18 C6.71 -8.59, 30.3 -42.89, 36.31 -51.47" stroke="#000000" stroke-width="2" fill="none"></path></g><g transform="translate(489.3189999617912 511.9353361948291) rotate(0 18.118452671426894 -25.333439257086184)"><path d="M30.02 -22.89 C31.1 -29.37, 33.23 -34.79, 36.57 -50.82 M28.3 -21.63 C31.09 -32.6, 34.19 -42.48, 36.3 -52.33" stroke="#000000" stroke-width="2" fill="none"></path></g><g transform="translate(489.3189999617912 511.9353361948291) rotate(0 18.118452671426894 -25.333439257086184)"><path d="M13.16 -34.58 C18.12 -38.25, 24.06 -41.02, 36.57 -50.82 M11.44 -33.33 C19.97 -40.32, 28.76 -46.26, 36.3 -52.33" stroke="#000000" stroke-width="2" fill="none"></path></g></g><g stroke-linecap="round" transform="translate(316.5446458505278 80.54520974444779) rotate(0 159.85257484896601 26.231012416751014)"><path d="M1.98 0.04 L320.77 -1.58 L319.89 52.93 L-1.53 50.74" stroke="none" stroke-width="0" fill="#fff"></path><path d="M1.35 0.38 C73.56 -1.67, 147.66 -2.56, 318.92 -0.6 M321.51 -0.27 C321.3 17.52, 317.85 32.91, 318.94 52.57 M318.54 53.43 C238.98 49.07, 160.2 50, -0.06 51.65 M-0.67 51.41 C-0.6 30.37, -1.99 10.39, -1.84 0.89" stroke="#000000" stroke-width="2.5" fill="none" stroke-dasharray="8 10"></path></g><g transform="translate(317.43925238674456 85.38161562498124) rotate(0 58 10)"><text x="0" y="14" font-family="Virgil, Segoe UI Emoji" font-size="16px" fill="#000000" text-anchor="start" style="white-space: pre;" direction="ltr">Application ID:</text></g><g transform="translate(323.2376831007805 104.96678359957866) rotate(0 22.5 10)"><text x="0" y="14" font-family="Virgil, Segoe UI Emoji" font-size="16px" fill="#000000" text-anchor="start" style="white-space: pre;" direction="ltr">nonce:</text></g><g transform="translate(472.20081253437775 84.98026725903549) rotate(0 47.5 10)"><text x="0" y="14" font-family="Virgil, Segoe UI Emoji" font-size="16px" fill="#000000" text-anchor="start" style="white-space: pre;" direction="ltr">Merkle root:</text></g><g transform="translate(440.57092756355314 107.72902935309901) rotate(0 41.5 10)"><text x="0" y="14" font-family="Virgil, Segoe UI Emoji" font-size="16px" fill="#000000" text-anchor="start" style="white-space: pre;" direction="ltr">IPFS CID:</text></g><g transform="translate(531.3778903133004 106.36139013579611) rotate(0 47.5 10)"><text x="0" y="14" font-family="Virgil, Segoe UI Emoji" font-size="16px" fill="#2b8a3e" text-anchor="start" style="white-space: pre;" direction="ltr">QmcRD4wk...</text></g><g transform="translate(570.0929432587218 84.80993130984109) rotate(0 32 10)"><text x="0" y="14" font-family="Virgil, Segoe UI Emoji" font-size="16px" fill="#c92a2a" text-anchor="start" style="white-space: pre;" direction="ltr">af874...</text></g><g transform="translate(434.79093213271904 85.40858294389488) rotate(0 11 10)"><text x="0" y="14" font-family="Virgil, Segoe UI Emoji" font-size="16px" fill="#a61e4d" text-anchor="start" style="white-space: pre;" direction="ltr">34</text></g><g transform="translate(379.71498179972264 106.36139013579589) rotate(0 6 10)"><text x="0" y="14" font-family="Virgil, Segoe UI Emoji" font-size="16px" fill="#495057" text-anchor="start" style="white-space: pre;" direction="ltr">3</text></g><g transform="translate(413.57838634337986 204.92562061161414) rotate(0 32 10)"><text x="0" y="14" font-family="Virgil, Segoe UI Emoji" font-size="16px" fill="#c92a2a" text-anchor="start" style="white-space: pre;" direction="ltr">af874...</text></g><g transform="translate(538.6315477004619 177.9646602025217) rotate(0 41.5 10)"><text x="0" y="14" font-family="Virgil, Segoe UI Emoji" font-size="16px" fill="#000000" text-anchor="start" style="white-space: pre;" direction="ltr">IPFS CID:</text></g><g stroke-linecap="round" transform="translate(512.3989538842695 171.48819865874646) rotate(0 66.38647646262393 28.468900267035224)"><path d="M41.78 1.45 C51.36 -0.87, 64.91 -1.37, 75.86 -0.48 C86.82 0.4, 98.91 3.85, 107.54 6.77 C116.17 9.69, 123.5 12.81, 127.65 17.03 C131.8 21.24, 133.8 27.39, 132.44 32.03 C131.07 36.68, 126.14 40.95, 119.47 44.87 C112.8 48.79, 102.58 53.6, 92.42 55.55 C82.25 57.5, 69.73 57.47, 58.5 56.56 C47.26 55.65, 33.88 53.07, 25 50.09 C16.13 47.11, 9.29 42.8, 5.26 38.7 C1.23 34.6, -0.7 29.96, 0.81 25.48 C2.32 21, 6.35 15.76, 14.32 11.81 C22.28 7.86, 41.68 3.47, 48.57 1.79 C55.47 0.12, 55.36 1.36, 55.68 1.74 M51.63 0.84 C61.44 -0.61, 74.49 0.72, 85.12 1.92 C95.74 3.12, 107.74 4.73, 115.39 8.02 C123.04 11.32, 128.43 16.7, 131.02 21.7 C133.61 26.7, 134.2 33.44, 130.92 38 C127.63 42.57, 119.54 46.27, 111.29 49.09 C103.04 51.92, 92.44 53.81, 81.42 54.94 C70.39 56.07, 55.79 57.07, 45.13 55.87 C34.48 54.67, 24.66 51.3, 17.5 47.73 C10.34 44.16, 4.72 39.22, 2.17 34.47 C-0.38 29.72, -1.23 23.8, 2.17 19.25 C5.58 14.69, 14.54 10.06, 22.6 7.14 C30.67 4.23, 45.45 2.63, 50.58 1.75 C55.71 0.88, 52.83 1.78, 53.36 1.88" stroke="#000000" stroke-width="4" fill="none"></path></g><g transform="translate(532.2042335556455 197.58389746412956) rotate(0 47.5 10)"><text x="0" y="14" font-family="Virgil, Segoe UI Emoji" font-size="16px" fill="#2b8a3e" text-anchor="start" style="white-space: pre;" direction="ltr">QmcRD4wk...</text></g><g stroke-linecap="round" transform="translate(316.13478546076635 20.571194520397626) rotate(0 159.85257484896601 15.835244844852184)"><path d="M-0.25 -0.45 L319.15 0.74 L318 30.99 L0.48 30.25" stroke="none" stroke-width="0" fill="#fff"></path><path d="M0.08 0.44 C78.36 0.98, 158.97 0.5, 320.6 -1.23 M320.79 1.82 C318.72 10.67, 320.91 20.34, 319.92 30.21 M320.4 31.38 C249.53 33.16, 178.23 32.89, -1.24 31.45 M1.16 31 C0.83 20.65, 0.66 10.03, 0.73 1.67" stroke="#000000" stroke-width="2.5" fill="none" stroke-dasharray="8 10"></path></g><g transform="translate(321.0327088827287 30.342576488024974) rotate(0 154 10)"><text x="0" y="14" font-family="Virgil, Segoe UI Emoji" font-size="16px" fill="#000000" text-anchor="start" style="white-space: pre;" direction="ltr">......................................................................</text></g><g transform="translate(317.5296243083819 523.7117279968767) rotate(0 11 10)"><text x="0" y="14" font-family="Virgil, Segoe UI Emoji" font-size="16px" fill="#a61e4d" text-anchor="start" style="white-space: pre;" direction="ltr">34</text></g><g transform="translate(402.67022492727074 525.7388851544696) rotate(0 16 10)"><text x="0" y="14" font-family="Virgil, Segoe UI Emoji" font-size="16px" fill="#e67700" text-anchor="start" style="white-space: pre;" direction="ltr">644</text></g><g transform="translate(454.70059197214687 523.7117279968769) rotate(0 6 10)"><text x="0" y="14" font-family="Virgil, Segoe UI Emoji" font-size="16px" fill="#000000" text-anchor="start" style="white-space: pre;" direction="ltr">2</text></g><g transform="translate(364.15423893301136 524.3874470494073) rotate(0 6 10)"><text x="0" y="14" font-family="Virgil, Segoe UI Emoji" font-size="16px" fill="#495057" text-anchor="start" style="white-space: pre;" direction="ltr">3</text></g><g transform="translate(346.8155769349253 525.4417613645929) rotate(0 4.5 10)"><text x="0" y="14" font-family="Virgil, Segoe UI Emoji" font-size="16px" fill="#000000" text-anchor="start" style="white-space: pre;" direction="ltr">/</text></g><g transform="translate(386.0072819817153 526.1174804171238) rotate(0 4.5 10)"><text x="0" y="14" font-family="Virgil, Segoe UI Emoji" font-size="16px" fill="#000000" text-anchor="start" style="white-space: pre;" direction="ltr">/</text></g><g transform="translate(440.0648061841846 524.766042312062) rotate(0 4.5 10)"><text x="0" y="14" font-family="Virgil, Segoe UI Emoji" font-size="16px" fill="#000000" text-anchor="start" style="white-space: pre;" direction="ltr">/</text></g><g stroke-linecap="round"><g transform="translate(312.1238718881352 544.2261090474939) rotate(0 84.0897329258994 0.5593086434313363)"><path d="M-0.23 -0.6 C28.06 -0.57, 141.5 0.42, 169.98 0.67 M-1.8 1.7 C26.32 1.79, 140.44 1.6, 169.14 1.61" stroke="#000000" stroke-width="2" fill="none"></path></g></g><g transform="translate(50.76190791693614 506.5828176207659) rotate(0 34 23)"><text x="0" y="32" font-family="Virgil, Segoe UI Emoji" font-size="36.58505168668671px" fill="#000000" text-anchor="start" style="white-space: pre;" direction="ltr">blob</text></g><g stroke-linecap="round"><g transform="translate(120.33561557111284 524.1387173587133) rotate(0 19.958307257894887 -26.116959975292275)"><path d="M-0.8 -0.42 C5.97 -9.06, 33.81 -43.53, 40.71 -51.81 M0.99 -1.69 C7.6 -10.2, 33.39 -42.29, 39.87 -50.66" stroke="#000000" stroke-width="2" fill="none"></path></g><g transform="translate(120.33561557111284 524.1387173587133) rotate(0 19.958307257894887 -26.116959975292275)"><path d="M29.74 -21.84 C32.14 -30.85, 37.95 -40.3, 38.4 -51.03 M30.43 -22.53 C33.09 -32.09, 36.32 -40.33, 39.83 -49.7" stroke="#000000" stroke-width="2" fill="none"></path></g><g transform="translate(120.33561557111284 524.1387173587133) rotate(0 19.958307257894887 -26.116959975292275)"><path d="M13.64 -34.56 C21.07 -39.5, 31.9 -44.98, 38.4 -51.03 M14.33 -35.26 C22.46 -40.65, 31.06 -44.64, 39.83 -49.7" stroke="#000000" stroke-width="2" fill="none"></path></g></g><g stroke-opacity="0.4" fill-opacity="0.4" transform="translate(532.3759440258639 202.34828858618778) rotate(0 1.1368683772161603e-13 -36.48771695926098)" stroke="none"><path fill="#000000" d="M -1.43,0.60 Q -1.43,0.60 -2.36,-1.66 -3.29,-3.94 -3.96,-6.01 -4.62,-8.08 -5.26,-11.37 -5.90,-14.67 -6.33,-17.72 -6.77,-20.77 -6.95,-25.26 -7.14,-29.75 -7.21,-34.34 -7.28,-38.93 -7.05,-42.59 -6.82,-46.24 -6.01,-49.96 -5.19,-53.68 -4.41,-56.22 -3.62,-58.77 -2.30,-61.82 -0.99,-64.86 -0.11,-66.69 0.77,-68.52 1.44,-69.77 2.11,-71.01 3.41,-72.48 4.71,-73.96 4.92,-74.13 5.13,-74.29 5.38,-74.38 5.64,-74.47 5.90,-74.48 6.17,-74.48 6.43,-74.40 6.68,-74.32 6.90,-74.16 7.12,-74.01 7.27,-73.79 7.43,-73.57 7.50,-73.31 7.58,-73.05 7.57,-72.78 7.56,-72.52 7.47,-72.27 7.37,-72.01 7.20,-71.81 7.03,-71.60 6.80,-71.46 6.58,-71.31 6.32,-71.25 6.06,-71.19 5.79,-71.21 5.52,-71.24 5.27,-71.34 5.03,-71.45 4.83,-71.63 4.63,-71.81 4.50,-72.05 4.37,-72.28 4.32,-72.55 4.28,-72.81 4.31,-73.08 4.35,-73.34 4.47,-73.58 4.60,-73.82 4.79,-74.01 4.98,-74.20 5.22,-74.31 5.46,-74.43 5.73,-74.47 5.99,-74.50 6.26,-74.45 6.52,-74.39 6.75,-74.26 6.98,-74.13 7.16,-73.93 7.34,-73.72 7.44,-73.48 7.55,-73.23 7.57,-72.96 7.59,-72.69 7.52,-72.43 7.45,-72.17 7.31,-71.95 7.16,-71.72 7.16,-71.72 7.16,-71.72 5.98,-70.48 4.81,-69.24 4.02,-68.26 3.24,-67.29 2.33,-65.55 1.43,-63.81 0.17,-60.90 -1.08,-57.99 -1.83,-55.55 -2.59,-53.10 -3.37,-49.58 -4.14,-46.06 -4.36,-42.52 -4.58,-38.98 -4.49,-34.42 -4.41,-29.86 -4.22,-25.52 -4.03,-21.17 -3.58,-18.19 -3.12,-15.22 -2.50,-12.10 -1.87,-8.99 -1.20,-7.05 -0.53,-5.10 0.45,-2.85 1.43,-0.60 1.49,-0.42 1.54,-0.24 1.55,-0.05 1.55,0.12 1.51,0.31 1.48,0.49 1.40,0.66 1.31,0.83 1.19,0.98 1.07,1.13 0.92,1.24 0.77,1.35 0.60,1.42 0.43,1.50 0.24,1.53 0.05,1.56 -0.12,1.54 -0.31,1.53 -0.49,1.47 -0.67,1.41 -0.83,1.30 -0.99,1.20 -1.12,1.07 -1.25,0.93 -1.34,0.77 -1.43,0.60 -1.43,0.60 L -1.43,0.60 Z"></path></g><g stroke-opacity="0.4" fill-opacity="0.4" transform="translate(465.852851485211 203.3865598478609) rotate(0 88.79972919426154 -51.74016479262423)" stroke="none"><path fill="#000000" d="M -1.56,-0.04 Q -1.56,-0.04 -1.42,-3.74 -1.28,-7.45 -1.01,-11.62 -0.73,-15.79 -0.19,-18.97 0.35,-22.14 1.13,-24.50 1.91,-26.86 5.13,-30.80 8.34,-34.74 11.20,-37.03 14.06,-39.33 16.75,-40.93 19.44,-42.53 22.24,-43.93 25.04,-45.33 28.03,-46.46 31.01,-47.59 35.11,-48.59 39.21,-49.60 42.50,-50.23 45.78,-50.86 48.30,-51.33 50.82,-51.80 53.19,-52.01 55.56,-52.21 59.77,-52.30 63.98,-52.39 67.51,-52.42 71.04,-52.46 74.36,-52.16 77.67,-51.87 80.33,-51.43 83.00,-50.99 85.86,-50.49 88.73,-50.00 91.72,-49.37 94.71,-48.75 98.12,-48.07 101.54,-47.40 106.17,-46.60 110.80,-45.80 114.34,-45.04 117.88,-44.29 120.53,-43.65 123.17,-43.02 125.18,-42.67 127.19,-42.32 128.88,-42.14 130.56,-41.96 132.07,-41.72 133.57,-41.49 134.71,-41.35 135.85,-41.21 137.12,-41.08 138.38,-40.96 140.00,-40.68 141.61,-40.40 143.21,-39.96 144.81,-39.53 146.19,-39.29 147.56,-39.06 149.18,-38.93 150.80,-38.80 152.43,-38.75 154.06,-38.70 156.60,-38.57 159.14,-38.45 161.00,-38.51 162.86,-38.58 164.16,-38.87 165.46,-39.15 166.61,-39.81 167.76,-40.46 168.67,-41.30 169.59,-42.14 170.40,-42.95 171.21,-43.76 172.48,-46.18 173.75,-48.59 174.15,-50.06 174.54,-51.53 174.67,-52.80 174.79,-54.07 175.09,-56.35 175.38,-58.62 175.49,-60.51 175.60,-62.39 175.60,-64.90 175.61,-67.41 175.41,-69.35 175.22,-71.30 174.85,-72.68 174.49,-74.07 174.09,-75.12 173.69,-76.16 173.21,-77.14 172.73,-78.12 171.84,-79.72 170.95,-81.32 170.11,-82.49 169.26,-83.66 168.47,-84.63 167.68,-85.61 166.78,-86.57 165.87,-87.54 164.98,-88.65 164.08,-89.76 163.25,-90.64 162.42,-91.52 161.26,-92.58 160.09,-93.64 158.45,-94.80 156.80,-95.97 155.69,-97.21 154.57,-98.45 153.48,-99.86 152.39,-101.27 152.09,-101.54 151.78,-101.81 151.58,-102.16 151.38,-102.51 151.30,-102.91 151.22,-103.31 151.27,-103.71 151.32,-104.11 151.50,-104.48 151.67,-104.85 151.96,-105.14 152.24,-105.42 152.61,-105.61 152.97,-105.79 153.37,-105.85 153.77,-105.91 154.17,-105.84 154.57,-105.76 154.93,-105.57 155.28,-105.37 155.55,-105.07 155.83,-104.77 155.99,-104.40 156.16,-104.03 156.19,-103.62 156.23,-103.22 156.13,-102.82 156.04,-102.43 155.82,-102.08 155.61,-101.74 155.29,-101.48 154.98,-101.23 154.60,-101.08 154.22,-100.94 153.81,-100.92 153.41,-100.91 153.02,-101.03 152.63,-101.14 152.30,-101.38 151.97,-101.61 151.73,-101.94 151.49,-102.26 151.36,-102.65 151.24,-103.04 151.25,-103.45 151.26,-103.85 151.39,-104.23 151.53,-104.62 151.78,-104.93 152.03,-105.25 152.37,-105.47 152.71,-105.70 153.11,-105.80 153.50,-105.90 153.91,-105.87 154.31,-105.84 154.69,-105.68 155.06,-105.53 155.06,-105.53 155.06,-105.53 156.68,-103.63 158.30,-101.73 159.84,-100.16 161.38,-98.59 162.24,-97.84 163.11,-97.08 164.53,-95.87 165.95,-94.66 166.84,-93.60 167.73,-92.55 168.46,-91.52 169.20,-90.50 170.18,-89.34 171.16,-88.19 171.91,-87.08 172.66,-85.97 173.51,-84.66 174.35,-83.35 175.49,-81.54 176.64,-79.73 177.06,-78.51 177.48,-77.28 177.75,-76.04 178.02,-74.81 178.27,-73.24 178.52,-71.68 178.79,-69.59 179.07,-67.50 179.21,-64.87 179.36,-62.24 179.31,-60.28 179.27,-58.32 179.19,-55.90 179.12,-53.49 178.87,-51.95 178.61,-50.41 178.12,-48.66 177.62,-46.91 176.79,-44.81 175.96,-42.71 175.08,-41.60 174.19,-40.50 173.22,-39.70 172.25,-38.90 170.92,-37.89 169.59,-36.88 167.88,-36.09 166.17,-35.30 164.60,-35.10 163.04,-34.90 161.08,-34.78 159.11,-34.65 156.52,-34.57 153.93,-34.49 152.22,-34.54 150.51,-34.59 148.62,-34.71 146.74,-34.83 145.19,-35.16 143.65,-35.50 142.26,-35.93 140.86,-36.37 139.31,-36.67 137.76,-36.98 136.42,-37.26 135.08,-37.54 133.97,-37.88 132.85,-38.21 131.48,-38.61 130.11,-39.01 128.41,-39.35 126.71,-39.69 124.64,-40.08 122.56,-40.47 119.95,-41.09 117.33,-41.72 113.84,-42.46 110.35,-43.21 105.69,-44.02 101.03,-44.82 97.60,-45.50 94.17,-46.18 91.22,-46.79 88.28,-47.41 85.42,-47.90 82.57,-48.39 80.00,-48.82 77.43,-49.25 74.25,-49.54 71.07,-49.83 67.55,-49.79 64.04,-49.76 59.91,-49.67 55.78,-49.59 53.54,-49.40 51.30,-49.21 48.79,-48.73 46.28,-48.26 43.06,-47.65 39.84,-47.03 35.89,-46.07 31.95,-45.10 29.09,-44.03 26.23,-42.95 23.52,-41.59 20.81,-40.23 18.27,-38.72 15.74,-37.22 13.09,-35.10 10.44,-32.99 7.47,-29.46 4.50,-25.93 3.81,-23.80 3.12,-21.67 2.63,-18.64 2.14,-15.62 1.92,-11.49 1.69,-7.37 1.63,-3.66 1.56,0.04 1.53,0.22 1.50,0.41 1.43,0.58 1.36,0.76 1.25,0.91 1.14,1.06 0.99,1.18 0.85,1.30 0.68,1.39 0.51,1.47 0.32,1.51 0.14,1.55 -0.04,1.55 -0.23,1.54 -0.41,1.49 -0.59,1.44 -0.75,1.35 -0.92,1.26 -1.06,1.13 -1.19,1.00 -1.30,0.84 -1.40,0.68 -1.46,0.50 -1.52,0.33 -1.54,0.14 -1.56,-0.04 -1.56,-0.04 L -1.56,-0.04 Z"></path></g></svg>